<svg width="325" height="47" viewBox="0 0 325 47" fill="none" xmlns="http://www.w3.org/2000/svg">
<path d="M3.56 36.36C2.52 36.36 1.68 36.0533 1.04 35.44C0.4 34.8533 0.08 34.0533 0.08 33.04C0.08 31.8133 0.52 30.6267 1.4 29.48C1.48 29.3733 1.54667 29.32 1.6 29.32C1.68 29.32 1.72 29.3867 1.72 29.52C1.72 29.52 1.68 29.6133 1.6 29.8C1.52 29.96 1.41333 30.2133 1.28 30.56C1.01333 31.2 0.88 31.8267 0.88 32.44C0.88 33.32 1.14667 34.08 1.68 34.72C2.21333 35.3867 2.90667 35.72 3.76 35.72C7.09333 35.72 10.44 34.08 13.8 30.8C16.7333 27.8933 19.2267 24.2533 21.28 19.88C23.2267 15.72 24.2 12.0533 24.2 8.88C24.2 8.74667 24.2 8.62667 24.2 8.52C24.2 8.38667 24.1867 8.26667 24.16 8.16C23.68 8.37333 23.0133 8.56 22.16 8.72C21.6 11.3067 20.76 14.0267 19.64 16.88C19.8 16.8 19.9467 16.76 20.08 16.76C20.3467 16.76 20.48 16.9067 20.48 17.2C20.48 17.7333 20.2133 18.3333 19.68 19C19.1467 19.64 18.6133 20.1333 18.08 20.48C16.4533 23.9467 14.8 26.7733 13.12 28.96C11.4667 31.1467 9.78667 32.7067 8.08 33.64C7.25333 34.12 6.48 34.36 5.76 34.36C5.49333 34.36 5.36 34.2667 5.36 34.08C5.36 33.92 5.49333 33.8133 5.76 33.76C6.05333 33.7333 6.53333 33.6267 7.2 33.44C9.09333 32.6933 11.1333 30.8267 13.32 27.84C14.0933 26.7467 14.84 25.5867 15.56 24.36C16.28 23.1333 16.96 21.84 17.6 20.48C16.96 19.6267 16.64 18.7333 16.64 17.8C16.64 16.7867 16.9067 16.28 17.44 16.28C17.8933 16.28 18.2533 16.7333 18.52 17.64L19.04 17.24C19.6 15.8267 20.0933 14.4133 20.52 13C20.9467 11.5867 21.3067 10.1867 21.6 8.8L16.44 9.4C14.8667 9.58666 13.52 9.76 12.4 9.92C11.28 10.08 10.3867 10.2533 9.72 10.44C6.54667 11.2933 4.96 12.52 4.96 14.12C4.96 15.3733 5.58667 16.6267 6.84 17.88C7.96 18.9467 9.18667 19.6667 10.52 20.04C10.68 20.0667 10.76 20.1067 10.76 20.16C10.76 20.2667 10.6533 20.32 10.44 20.32C8.89333 20.32 7.48 19.68 6.2 18.4C4.92 17.0667 4.28 15.64 4.28 14.12C4.28 12.44 5.52 11.0267 8 9.88C9.84 9.02667 12.3733 8.32 15.6 7.76C16.6667 7.62667 17.72 7.48 18.76 7.32C19.8267 7.16 20.8933 7 21.96 6.84C22.2 5.18667 22.32 3.2 22.32 0.879999C22.32 0.666665 22.4 0.559999 22.56 0.559999C22.6133 0.559999 22.6667 0.626665 22.72 0.759998C22.7467 1.02666 22.76 1.33333 22.76 1.68C22.7867 2.02667 22.8 2.4 22.8 2.8C22.8 3.41333 22.7733 4.05333 22.72 4.72C22.6667 5.38667 22.5867 6.06667 22.48 6.76C22.8533 6.70667 23.1867 6.64 23.48 6.56C23.7733 6.48 24.0133 6.41333 24.2 6.36C24.3333 6.14667 24.52 6.04 24.76 6.04C25.08 6.04 25.2533 6.32 25.28 6.88C25.3067 7.25333 25.3467 7.64 25.4 8.04C25.48 8.44 25.5867 9.04 25.72 9.84L26.48 13.96C27.04 17.0267 27.6267 19.6933 28.24 21.96C28.88 24.2 29.5333 26.0533 30.2 27.52C30.76 26.2667 31.36 23.9733 32 20.64C32.96 15.7067 33.76 12.3333 34.4 10.52C35.8133 6.6 37.7867 3.92 40.32 2.48C41.0667 2.05333 41.8267 1.84 42.6 1.84C43.88 1.84 45.12 2.58667 46.32 4.08C47.4933 5.49333 48.08 6.82667 48.08 8.08C48.08 8.18667 48.04 8.24 47.96 8.24C47.88 8.24 47.8 8.13333 47.72 7.92C47.3733 6.82667 46.8533 5.89333 46.16 5.12C45.3333 4.29333 44.3733 3.88 43.28 3.88C42.72 3.88 42.12 4.02667 41.48 4.32C38.9733 5.46667 36.9333 7.97333 35.36 11.84C34.64 13.6533 33.72 16.9067 32.6 21.6C32.1467 23.5733 31.8667 24.72 31.76 25.04C31.5733 25.68 31.3867 26.28 31.2 26.84C31.0133 27.3733 30.8133 27.8667 30.6 28.32C31.7733 30.6933 33.0533 31.88 34.44 31.88C35.1867 31.88 36.0133 31.52 36.92 30.8C37.8533 30.08 38.28 29.72 38.2 29.72C38.2533 29.72 38.28 29.76 38.28 29.84C38.28 29.9733 38.2 30.12 38.04 30.28C36.44 31.9067 34.8533 32.72 33.28 32.72C31.76 32.72 30.3867 31.8667 29.16 30.16C28.8933 30.3467 28.5733 30.44 28.2 30.44C27.64 30.44 27.36 30.2667 27.36 29.92C27.36 29.84 27.5067 29.7733 27.8 29.72C28.2267 29.64 28.52 29.5467 28.68 29.44C27.4533 27.4933 26.56 24.6667 26 20.96C25.9467 20.5333 25.84 19.5733 25.68 18.08C25.52 16.5867 25.32 14.5467 25.08 11.96C24.44 15.7733 22.9867 19.56 20.72 23.32C18.4533 27.16 15.84 30.2667 12.88 32.64C9.81333 35.12 6.70667 36.36 3.56 36.36ZM46.3222 31.16C45.6022 31.16 45.0422 30.7867 44.6422 30.04C44.3222 29.4267 44.1622 28.72 44.1622 27.92C44.1622 27.52 44.1889 27.08 44.2422 26.6C44.3222 26.0933 44.4289 25.5467 44.5622 24.96C42.8822 28.6933 41.1489 30.56 39.3622 30.56C38.2689 30.56 37.7222 29.8533 37.7222 28.44C37.7222 26.1733 38.8155 23.8267 41.0022 21.4C43.2155 18.92 45.4155 17.68 47.6022 17.68C48.6422 17.68 49.1622 18.1333 49.1622 19.04C49.1622 20.16 48.4155 21.28 46.9222 22.4C46.1489 24.32 45.7622 26.2933 45.7622 28.32C45.7622 29.84 46.0955 30.6 46.7622 30.6C47.6955 30.6 49.2955 28.92 51.5622 25.56C51.7222 25.3467 51.8422 25.24 51.9222 25.24C52.0022 25.24 52.0422 25.2933 52.0422 25.4C52.0422 25.5333 51.9889 25.6667 51.8822 25.8C49.4822 29.3733 47.6289 31.16 46.3222 31.16ZM39.5222 29.32C41.2022 29.32 42.8289 27.4533 44.4022 23.72C44.1889 23.7733 43.9889 23.8267 43.8022 23.88C43.6422 23.9067 43.4955 23.92 43.3622 23.92C43.2555 23.92 43.2022 23.88 43.2022 23.8C43.2022 23.6667 43.3889 23.5333 43.7622 23.4L45.0022 22.68C45.0555 22.2267 45.3355 21.64 45.8422 20.92C46.3489 20.1733 46.8289 19.8 47.2822 19.8C47.4422 19.8 47.5222 19.92 47.5222 20.16C47.5222 20.3467 47.4555 20.64 47.3222 21.04C47.7489 20.4533 47.9622 19.88 47.9622 19.32C47.9622 18.7067 47.6822 18.4 47.1222 18.4C45.7889 18.4 44.0422 19.72 41.8822 22.36C39.7222 24.9467 38.6422 26.96 38.6422 28.4C38.6422 29.0133 38.9355 29.32 39.5222 29.32ZM53.2463 31.12C53.0596 31.12 52.8196 31.04 52.5263 30.88C52.2329 30.6933 52.0863 30.52 52.0863 30.36L52.5663 29.28C53.0196 28.24 53.4463 27.2267 53.8463 26.24C54.2729 25.2267 54.6196 24.2133 54.8863 23.2C55.1529 22.2933 55.2863 21.1733 55.2863 19.84C55.2063 20.1067 55.0329 20.4933 54.7663 21C54.4996 21.5067 54.1396 22.1467 53.6863 22.92C53.2596 23.6667 52.8729 24.2933 52.5263 24.8C52.2063 25.28 51.9396 25.6667 51.7263 25.96C51.7263 25.9867 51.6996 26 51.6463 26C51.5129 26 51.4463 25.9467 51.4463 25.84C51.4463 25.7867 51.4596 25.7467 51.4863 25.72L52.7262 23.76C53.4463 22.6133 54.0196 21.5733 54.4463 20.64C54.8729 19.68 55.1796 18.84 55.3663 18.12C55.5263 17.4267 55.7929 17.08 56.1663 17.08C56.5929 17.08 56.8063 17.6133 56.8063 18.68C56.8063 20.6 56.1929 22.96 54.9663 25.76C56.4063 23.9467 57.4063 22.7467 57.9663 22.16C59.4863 20.5333 60.6729 19.72 61.5263 19.72C62.3796 19.72 62.8063 20.28 62.8063 21.4C62.8063 22.1733 62.5929 22.8533 62.1663 23.44C61.6596 24.1867 61.1929 24.56 60.7663 24.56C60.6863 24.56 60.6463 24.5067 60.6463 24.4C60.6463 24.4 60.7929 24.0667 61.0863 23.4C61.3796 22.7333 61.5263 22.16 61.5263 21.68C61.5263 20.96 61.2996 20.6 60.8463 20.6C60.1529 20.6 59.1129 21.4133 57.7263 23.04C57.1396 23.7067 56.6329 24.3333 56.2063 24.92C55.7796 25.48 55.4329 25.9867 55.1663 26.44C55.1396 26.52 55.0063 26.84 54.7663 27.4C54.5263 27.96 54.2196 28.7867 53.8463 29.88L53.4463 31.04C53.3929 31.0933 53.3263 31.12 53.2463 31.12ZM70.6581 31.16C69.9381 31.16 69.3781 30.7867 68.9781 30.04C68.6581 29.4267 68.4981 28.72 68.4981 27.92C68.4981 27.52 68.5248 27.08 68.5781 26.6C68.6581 26.0933 68.7648 25.5467 68.8981 24.96C67.2181 28.6933 65.4848 30.56 63.6981 30.56C62.6048 30.56 62.0581 29.8533 62.0581 28.44C62.0581 26.1733 63.1515 23.8267 65.3381 21.4C67.5515 18.92 69.7515 17.68 71.9381 17.68C72.9781 17.68 73.4981 18.1333 73.4981 19.04C73.4981 20.16 72.7515 21.28 71.2581 22.4C70.4848 24.32 70.0981 26.2933 70.0981 28.32C70.0981 29.84 70.4315 30.6 71.0981 30.6C72.0315 30.6 73.6315 28.92 75.8981 25.56C76.0581 25.3467 76.1781 25.24 76.2581 25.24C76.3381 25.24 76.3781 25.2933 76.3781 25.4C76.3781 25.5333 76.3248 25.6667 76.2181 25.8C73.8181 29.3733 71.9648 31.16 70.6581 31.16ZM63.8581 29.32C65.5381 29.32 67.1648 27.4533 68.7381 23.72C68.5248 23.7733 68.3248 23.8267 68.1381 23.88C67.9781 23.9067 67.8315 23.92 67.6981 23.92C67.5915 23.92 67.5381 23.88 67.5381 23.8C67.5381 23.6667 67.7248 23.5333 68.0981 23.4L69.3381 22.68C69.3915 22.2267 69.6715 21.64 70.1781 20.92C70.6848 20.1733 71.1648 19.8 71.6181 19.8C71.7781 19.8 71.8581 19.92 71.8581 20.16C71.8581 20.3467 71.7915 20.64 71.6581 21.04C72.0848 20.4533 72.2981 19.88 72.2981 19.32C72.2981 18.7067 72.0181 18.4 71.4581 18.4C70.1248 18.4 68.3781 19.72 66.2181 22.36C64.0581 24.9467 62.9781 26.96 62.9781 28.4C62.9781 29.0133 63.2715 29.32 63.8581 29.32ZM71.2391 46.92C69.7457 46.92 68.1857 46.3067 66.5591 45.08C64.9324 43.8533 64.1191 42.5733 64.1191 41.24C64.1191 41.1333 64.1591 41.08 64.2391 41.08C64.3457 41.08 64.4124 41.16 64.4391 41.32C65.5591 44.12 67.5857 45.52 70.5191 45.52C72.0124 45.52 73.3991 45.16 74.6791 44.44C77.1591 43.0533 79.0924 40.88 80.4791 37.92C80.9057 36.9867 81.3191 35.8 81.7191 34.36C82.1457 32.9467 82.5457 31.28 82.9191 29.36C83.0791 28.5067 83.2791 27.44 83.5191 26.16C83.7591 24.88 84.1057 23.4 84.5591 21.72L85.2391 19.24C83.5591 20.5467 81.5457 24.2933 79.1991 30.48C79.1991 30.5333 79.1457 30.56 79.0391 30.56C78.8524 30.56 78.6524 30.4667 78.4391 30.28C78.2257 30.0933 78.1191 29.8933 78.1191 29.68C78.1191 29.68 78.2257 29.4 78.4391 28.84C78.6791 28.3067 78.7991 28.0267 78.7991 28C79.3057 26.5067 79.5591 24.32 79.5591 21.44C79.5591 19.2533 79.0924 18.16 78.1591 18.16C77.6524 18.16 77.0257 18.5067 76.2791 19.2C75.5857 19.8667 75.2124 20.2 75.1591 20.2C75.0791 20.2 75.0391 20.1467 75.0391 20.04C75.0391 20.0133 75.0657 19.92 75.1191 19.76C75.4924 19.1733 76.0924 18.5867 76.9191 18C77.7991 17.36 78.5324 17.04 79.1191 17.04C80.2391 17.04 80.7991 18.12 80.7991 20.28C80.7991 22.04 80.4391 23.9867 79.7191 26.12C81.9324 22.04 83.8124 19.6 85.3591 18.8C85.7591 17.36 86.2124 16.3467 86.7191 15.76C87.3857 14.9333 88.3724 14.52 89.6791 14.52C90.1591 14.52 90.3991 14.6 90.3991 14.76C90.3991 14.84 90.3324 14.9067 90.1991 14.96C89.8524 15.04 89.5457 15.1467 89.2791 15.28C88.0524 16.16 87.0124 18.44 86.1591 22.12C85.5191 24.8133 85.0257 26.8933 84.6791 28.36C84.3324 29.8 84.1324 30.6267 84.0791 30.84C83.0924 34.4133 81.9724 37.3467 80.7191 39.64C79.0924 42.5467 77.0924 44.6667 74.7191 46C73.6257 46.6133 72.4657 46.92 71.2391 46.92ZM96.7519 31.16C96.0319 31.16 95.4719 30.7867 95.0719 30.04C94.7519 29.4267 94.5919 28.72 94.5919 27.92C94.5919 27.52 94.6185 27.08 94.6719 26.6C94.7519 26.0933 94.8585 25.5467 94.9919 24.96C93.3119 28.6933 91.5785 30.56 89.7919 30.56C88.6985 30.56 88.1519 29.8533 88.1519 28.44C88.1519 26.1733 89.2452 23.8267 91.4319 21.4C93.6452 18.92 95.8452 17.68 98.0319 17.68C99.0719 17.68 99.5919 18.1333 99.5919 19.04C99.5919 20.16 98.8452 21.28 97.3519 22.4C96.5785 24.32 96.1919 26.2933 96.1919 28.32C96.1919 29.84 96.5252 30.6 97.1919 30.6C98.1252 30.6 99.7252 28.92 101.992 25.56C102.152 25.3467 102.272 25.24 102.352 25.24C102.432 25.24 102.472 25.2933 102.472 25.4C102.472 25.5333 102.419 25.6667 102.312 25.8C99.9119 29.3733 98.0585 31.16 96.7519 31.16ZM89.9519 29.32C91.6319 29.32 93.2585 27.4533 94.8319 23.72C94.6185 23.7733 94.4185 23.8267 94.2319 23.88C94.0719 23.9067 93.9252 23.92 93.7919 23.92C93.6852 23.92 93.6319 23.88 93.6319 23.8C93.6319 23.6667 93.8185 23.5333 94.1919 23.4L95.4319 22.68C95.4852 22.2267 95.7652 21.64 96.2719 20.92C96.7785 20.1733 97.2585 19.8 97.7119 19.8C97.8719 19.8 97.9519 19.92 97.9519 20.16C97.9519 20.3467 97.8852 20.64 97.7519 21.04C98.1785 20.4533 98.3919 19.88 98.3919 19.32C98.3919 18.7067 98.1119 18.4 97.5519 18.4C96.2185 18.4 94.4719 19.72 92.3119 22.36C90.1519 24.9467 89.0719 26.96 89.0719 28.4C89.0719 29.0133 89.3652 29.32 89.9519 29.32ZM101.876 31.44C101.636 31.44 101.516 31.2667 101.516 30.92V30.84C101.623 30.4667 101.729 30 101.836 29.44C101.969 28.88 102.116 28.2267 102.276 27.48C102.436 26.7333 102.636 25.8 102.876 24.68C103.116 23.5333 103.409 22.2133 103.756 20.72L103.276 19.56C103.143 19.2133 103.036 18.96 102.956 18.8C102.903 18.64 102.876 18.56 102.876 18.56C102.876 18.3733 103.103 18.2 103.556 18.04C104.889 17.5333 105.743 17.28 106.116 17.28C106.516 17.28 106.716 17.4 106.716 17.64C106.689 17.56 106.009 19.2667 104.676 22.76V23.12C104.676 23.8667 104.556 24.24 104.316 24.24C104.289 24.24 104.249 24.2 104.196 24.12C103.983 24.7867 103.769 25.4267 103.556 26.04C103.369 26.6267 103.196 27.2133 103.036 27.8C103.623 26.84 104.223 25.92 104.836 25.04C105.476 24.16 106.129 23.3333 106.796 22.56C108.796 20.24 110.449 19.08 111.756 19.08C112.369 19.08 112.676 19.32 112.676 19.8C112.676 19.96 112.636 20.16 112.556 20.4C112.343 21.3067 112.049 22.4533 111.676 23.84C111.303 25.2 110.863 26.7867 110.356 28.6C111.903 27.4533 113.103 26.2267 113.956 24.92C114.089 24.76 114.183 24.68 114.236 24.68C114.316 24.68 114.356 24.7333 114.356 24.84C114.356 24.8933 114.316 24.9867 114.236 25.12C113.063 27.2 111.636 28.8533 109.956 30.08C109.849 30.24 109.676 30.32 109.436 30.32C109.249 30.32 109.156 30.2133 109.156 30C109.156 29.9467 109.196 29.7067 109.276 29.28C109.356 28.8267 109.463 28.2 109.596 27.4C109.729 26.8133 109.849 26.24 109.956 25.68C110.063 25.12 110.169 24.5467 110.276 23.96C110.463 22.6533 110.583 21.5067 110.636 20.52C110.049 20.7867 109.409 21.2267 108.716 21.84C108.049 22.4267 107.303 23.1733 106.476 24.08C105.729 24.9067 105.076 25.6933 104.516 26.44C103.983 27.16 103.543 27.84 103.196 28.48C102.823 29.2 102.543 29.9733 102.356 30.8C102.249 31.2267 102.089 31.44 101.876 31.44ZM103.996 19.64L104.356 18.32C104.223 18.4267 103.969 18.56 103.596 18.72L103.996 19.64ZM121.439 31.16C120.719 31.16 120.159 30.7867 119.759 30.04C119.439 29.4267 119.279 28.72 119.279 27.92C119.279 27.52 119.306 27.08 119.359 26.6C119.439 26.0933 119.546 25.5467 119.679 24.96C117.999 28.6933 116.266 30.56 114.479 30.56C113.386 30.56 112.839 29.8533 112.839 28.44C112.839 26.1733 113.933 23.8267 116.119 21.4C118.333 18.92 120.533 17.68 122.719 17.68C123.759 17.68 124.279 18.1333 124.279 19.04C124.279 20.16 123.533 21.28 122.039 22.4C121.266 24.32 120.879 26.2933 120.879 28.32C120.879 29.84 121.213 30.6 121.879 30.6C122.813 30.6 124.413 28.92 126.679 25.56C126.839 25.3467 126.959 25.24 127.039 25.24C127.119 25.24 127.159 25.2933 127.159 25.4C127.159 25.5333 127.106 25.6667 126.999 25.8C124.599 29.3733 122.746 31.16 121.439 31.16ZM114.639 29.32C116.319 29.32 117.946 27.4533 119.519 23.72C119.306 23.7733 119.106 23.8267 118.919 23.88C118.759 23.9067 118.613 23.92 118.479 23.92C118.373 23.92 118.319 23.88 118.319 23.8C118.319 23.6667 118.506 23.5333 118.879 23.4L120.119 22.68C120.173 22.2267 120.453 21.64 120.959 20.92C121.466 20.1733 121.946 19.8 122.399 19.8C122.559 19.8 122.639 19.92 122.639 20.16C122.639 20.3467 122.573 20.64 122.439 21.04C122.866 20.4533 123.079 19.88 123.079 19.32C123.079 18.7067 122.799 18.4 122.239 18.4C120.906 18.4 119.159 19.72 116.999 22.36C114.839 24.9467 113.759 26.96 113.759 28.4C113.759 29.0133 114.053 29.32 114.639 29.32ZM127.603 30.88C127.363 30.88 127.243 30.7733 127.243 30.56C127.243 30.5333 127.243 30.5067 127.243 30.48C127.27 30.4533 127.297 30.4133 127.323 30.36V30.32C127.323 30.1867 127.363 30.0267 127.443 29.84C127.897 28.72 128.297 27.1867 128.643 25.24C128.723 24.7867 128.763 24.1067 128.763 23.2C128.763 22.88 128.71 22.3867 128.603 21.72C128.523 21.0533 128.483 20.56 128.483 20.24C128.483 20.0533 128.59 19.92 128.803 19.84L130.563 19.36C130.963 18.4533 131.63 18 132.563 18C132.963 18 133.097 18.16 132.963 18.48C133.283 18.3467 133.523 18.24 133.683 18.16C133.843 18.08 133.923 18.04 133.923 18.04C133.977 18.04 134.003 18.08 134.003 18.16C134.003 18.4 133.577 18.7067 132.723 19.08C132.27 20.1467 131.723 21.4933 131.083 23.12C130.47 24.72 129.75 26.6133 128.923 28.8C129.75 27.8667 130.457 27.0267 131.043 26.28C131.657 25.5333 132.163 24.8933 132.563 24.36C132.857 23.8267 133.257 23.1733 133.763 22.4C134.27 21.6 134.857 20.6933 135.523 19.68C135.897 19.2 136.457 18.96 137.203 18.96C137.95 18.96 138.323 19.2533 138.323 19.84C138.323 20.08 138.017 20.9733 137.403 22.52C136.657 24.36 136.283 25.3333 136.283 25.44C136.977 24.8267 137.63 24.1467 138.243 23.4C138.883 22.6267 139.483 21.8 140.043 20.92C140.15 20.7333 140.257 20.64 140.363 20.64C140.443 20.64 140.483 20.7067 140.483 20.84C140.483 21.1867 139.777 22.3333 138.363 24.28C137.937 24.8667 137.497 25.4533 137.043 26.04C136.59 26.6267 136.137 27.2133 135.683 27.8C135.603 27.9333 135.43 28 135.163 28C134.977 28 134.883 27.9067 134.883 27.72C134.883 27.5867 134.923 27.3467 135.003 27C135.083 26.6533 135.19 26.1867 135.323 25.6L135.963 23.08C136.07 22.6 136.15 22.1467 136.203 21.72C136.257 21.2933 136.283 20.8933 136.283 20.52C135.35 21.9333 134.123 23.52 132.603 25.28L128.643 29.8C128.563 30.52 128.217 30.88 127.603 30.88ZM145.003 30.28C143.537 30.28 142.39 29.3067 141.563 27.36C140.897 25.8667 140.563 24.28 140.563 22.6C140.563 21.6133 140.67 20.88 140.883 20.4C141.043 20.1067 141.457 19.96 142.123 19.96C142.39 19.96 142.55 20.0267 142.603 20.16C142.55 20.16 142.483 20.44 142.403 21C142.323 21.5067 142.283 22.0667 142.283 22.68C142.283 24.04 142.51 25.4267 142.963 26.84C143.603 28.68 144.497 29.6 145.643 29.6C145.83 29.6 146.07 29.5467 146.363 29.44C146.683 29.3067 146.91 29.24 147.043 29.24C147.177 29.24 147.243 29.28 147.243 29.36C147.243 29.5733 146.937 29.7867 146.323 30C145.763 30.1867 145.323 30.28 145.003 30.28ZM129.403 22.52C129.537 22.0667 129.683 21.6267 129.843 21.2C130.003 20.7733 130.15 20.3867 130.283 20.04L129.203 20.4C129.257 20.7467 129.297 21.0933 129.323 21.44C129.377 21.7867 129.403 22.1467 129.403 22.52ZM154.739 40.28C152.979 40.28 151.312 39.6267 149.739 38.32C148.032 36.96 147.179 35.44 147.179 33.76C147.179 33.5733 147.232 33.48 147.339 33.48C147.419 33.48 147.485 33.5867 147.539 33.8L148.139 35.36C149.259 37.5467 151.232 38.64 154.059 38.64C155.765 38.64 157.432 38.2133 159.059 37.36C162.552 35.52 165.272 32.88 167.219 29.44C167.832 28.3467 168.485 26.8933 169.179 25.08C169.872 23.2667 170.592 21.1067 171.339 18.6C171.685 17.4 172.125 15.9067 172.659 14.12C173.192 12.3067 173.805 10.2133 174.499 7.84L171.139 8.68C170.979 10.4133 170.699 12.24 170.299 14.16C170.672 13.84 170.992 13.68 171.259 13.68C171.472 13.68 171.579 13.8133 171.579 14.08C171.579 14.9867 170.899 16 169.539 17.12C169.005 19.0667 168.392 20.92 167.699 22.68C167.005 24.44 166.232 26.1333 165.379 27.76C163.085 32 160.659 34.8267 158.099 36.24C156.952 36.9067 155.979 37.24 155.179 37.24C154.939 37.24 154.819 37.1467 154.819 36.96C154.819 36.8267 154.925 36.7333 155.139 36.68C156.019 36.52 156.725 36.32 157.259 36.08C159.819 34.88 162.245 32.1467 164.539 27.88C165.392 26.3067 166.165 24.6533 166.859 22.92C167.579 21.16 168.219 19.3333 168.779 17.44C168.192 16.7467 167.899 15.9467 167.899 15.04C167.899 13.9733 168.179 13.44 168.739 13.44C169.059 13.44 169.339 13.7333 169.579 14.32C170.032 12.4267 170.352 10.6 170.539 8.84C160.992 11.6667 156.219 15.9467 156.219 21.68C156.219 23.3867 156.819 24.7067 158.019 25.64C159.112 26.52 160.525 26.96 162.259 26.96C162.392 26.96 162.605 26.9467 162.899 26.92C163.219 26.8667 163.459 26.84 163.619 26.84C163.725 26.84 163.779 26.8667 163.779 26.92C163.779 27.2133 163.125 27.36 161.819 27.36C159.872 27.36 158.245 26.9067 156.939 26C155.445 24.96 154.699 23.52 154.699 21.68C154.699 15.5467 160.005 11.04 170.619 8.16C170.672 7.54667 170.712 6.88 170.739 6.16C170.792 5.41333 170.819 4.62667 170.819 3.8C170.819 3.64 170.899 3.54666 171.059 3.52C171.219 3.54666 171.299 4.32 171.299 5.84C171.299 6.18667 171.285 6.54666 171.259 6.92C171.259 7.26666 171.245 7.62666 171.219 8L174.779 7.16C175.125 6.33333 175.472 5.64 175.819 5.08C176.165 4.49333 176.512 4.05333 176.859 3.76C177.765 3.06667 179.032 2.72 180.659 2.72C181.432 2.72 182.139 2.88 182.779 3.2C183.552 3.6 183.939 4.14667 183.939 4.84C183.939 5.69333 183.299 6.24 182.019 6.48L177.219 7.32C176.579 9.34667 175.939 11.36 175.299 13.36C174.659 15.36 174.032 17.36 173.419 19.36C171.792 24.0267 169.992 27.8267 168.019 30.76C165.485 34.4933 162.445 37.32 158.899 39.24C157.565 39.9333 156.179 40.28 154.739 40.28ZM177.579 6.68C178.165 6.62667 178.872 6.52 179.699 6.36C180.525 6.2 181.472 6 182.539 5.76C183.259 5.46667 183.619 5.08 183.619 4.6C183.619 3.66666 182.859 3.2 181.339 3.2C180.085 3.2 178.832 4.36 177.579 6.68ZM174.376 31.44C174.136 31.44 174.016 31.2667 174.016 30.92V30.84C174.123 30.4667 174.229 30 174.336 29.44C174.469 28.88 174.616 28.2267 174.776 27.48C174.936 26.7333 175.136 25.8 175.376 24.68C175.616 23.5333 175.909 22.2133 176.256 20.72L175.776 19.56C175.643 19.2133 175.536 18.96 175.456 18.8C175.403 18.64 175.376 18.56 175.376 18.56C175.376 18.3733 175.603 18.2 176.056 18.04C177.389 17.5333 178.243 17.28 178.616 17.28C179.016 17.28 179.216 17.4 179.216 17.64C179.189 17.56 178.509 19.2667 177.176 22.76V23.12C177.176 23.8667 177.056 24.24 176.816 24.24C176.789 24.24 176.749 24.2 176.696 24.12C176.483 24.7867 176.269 25.4267 176.056 26.04C175.869 26.6267 175.696 27.2133 175.536 27.8C176.123 26.84 176.723 25.92 177.336 25.04C177.976 24.16 178.629 23.3333 179.296 22.56C181.296 20.24 182.949 19.08 184.256 19.08C184.869 19.08 185.176 19.32 185.176 19.8C185.176 19.96 185.136 20.16 185.056 20.4C184.843 21.3067 184.549 22.4533 184.176 23.84C183.803 25.2 183.363 26.7867 182.856 28.6C184.403 27.4533 185.603 26.2267 186.456 24.92C186.589 24.76 186.683 24.68 186.736 24.68C186.816 24.68 186.856 24.7333 186.856 24.84C186.856 24.8933 186.816 24.9867 186.736 25.12C185.563 27.2 184.136 28.8533 182.456 30.08C182.349 30.24 182.176 30.32 181.936 30.32C181.749 30.32 181.656 30.2133 181.656 30C181.656 29.9467 181.696 29.7067 181.776 29.28C181.856 28.8267 181.963 28.2 182.096 27.4C182.229 26.8133 182.349 26.24 182.456 25.68C182.563 25.12 182.669 24.5467 182.776 23.96C182.963 22.6533 183.083 21.5067 183.136 20.52C182.549 20.7867 181.909 21.2267 181.216 21.84C180.549 22.4267 179.803 23.1733 178.976 24.08C178.229 24.9067 177.576 25.6933 177.016 26.44C176.483 27.16 176.043 27.84 175.696 28.48C175.323 29.2 175.043 29.9733 174.856 30.8C174.749 31.2267 174.589 31.44 174.376 31.44ZM176.496 19.64L176.856 18.32C176.723 18.4267 176.469 18.56 176.096 18.72L176.496 19.64ZM193.939 31.16C193.219 31.16 192.659 30.7867 192.259 30.04C191.939 29.4267 191.779 28.72 191.779 27.92C191.779 27.52 191.806 27.08 191.859 26.6C191.939 26.0933 192.046 25.5467 192.179 24.96C190.499 28.6933 188.766 30.56 186.979 30.56C185.886 30.56 185.339 29.8533 185.339 28.44C185.339 26.1733 186.433 23.8267 188.619 21.4C190.833 18.92 193.033 17.68 195.219 17.68C196.259 17.68 196.779 18.1333 196.779 19.04C196.779 20.16 196.033 21.28 194.539 22.4C193.766 24.32 193.379 26.2933 193.379 28.32C193.379 29.84 193.713 30.6 194.379 30.6C195.313 30.6 196.913 28.92 199.179 25.56C199.339 25.3467 199.459 25.24 199.539 25.24C199.619 25.24 199.659 25.2933 199.659 25.4C199.659 25.5333 199.606 25.6667 199.499 25.8C197.099 29.3733 195.246 31.16 193.939 31.16ZM187.139 29.32C188.819 29.32 190.446 27.4533 192.019 23.72C191.806 23.7733 191.606 23.8267 191.419 23.88C191.259 23.9067 191.113 23.92 190.979 23.92C190.873 23.92 190.819 23.88 190.819 23.8C190.819 23.6667 191.006 23.5333 191.379 23.4L192.619 22.68C192.673 22.2267 192.953 21.64 193.459 20.92C193.966 20.1733 194.446 19.8 194.899 19.8C195.059 19.8 195.139 19.92 195.139 20.16C195.139 20.3467 195.073 20.64 194.939 21.04C195.366 20.4533 195.579 19.88 195.579 19.32C195.579 18.7067 195.299 18.4 194.739 18.4C193.406 18.4 191.659 19.72 189.499 22.36C187.339 24.9467 186.259 26.96 186.259 28.4C186.259 29.0133 186.553 29.32 187.139 29.32ZM199.063 31.44C198.823 31.44 198.703 31.2667 198.703 30.92V30.84C198.81 30.4667 198.917 30 199.023 29.44C199.157 28.88 199.303 28.2267 199.463 27.48C199.623 26.7333 199.823 25.8 200.063 24.68C200.303 23.5333 200.597 22.2133 200.943 20.72L200.463 19.56C200.33 19.2133 200.223 18.96 200.143 18.8C200.09 18.64 200.063 18.56 200.063 18.56C200.063 18.3733 200.29 18.2 200.743 18.04C202.077 17.5333 202.93 17.28 203.303 17.28C203.703 17.28 203.903 17.4 203.903 17.64C203.877 17.56 203.197 19.2667 201.863 22.76V23.12C201.863 23.8667 201.743 24.24 201.503 24.24C201.477 24.24 201.437 24.2 201.383 24.12C201.17 24.7867 200.957 25.4267 200.743 26.04C200.557 26.6267 200.383 27.2133 200.223 27.8C200.81 26.84 201.41 25.92 202.023 25.04C202.663 24.16 203.317 23.3333 203.983 22.56C205.983 20.24 207.637 19.08 208.943 19.08C209.557 19.08 209.863 19.32 209.863 19.8C209.863 19.96 209.823 20.16 209.743 20.4C209.53 21.3067 209.237 22.4533 208.863 23.84C208.49 25.2 208.05 26.7867 207.543 28.6C209.09 27.4533 210.29 26.2267 211.143 24.92C211.277 24.76 211.37 24.68 211.423 24.68C211.503 24.68 211.543 24.7333 211.543 24.84C211.543 24.8933 211.503 24.9867 211.423 25.12C210.25 27.2 208.823 28.8533 207.143 30.08C207.037 30.24 206.863 30.32 206.623 30.32C206.437 30.32 206.343 30.2133 206.343 30C206.343 29.9467 206.383 29.7067 206.463 29.28C206.543 28.8267 206.65 28.2 206.783 27.4C206.917 26.8133 207.037 26.24 207.143 25.68C207.25 25.12 207.357 24.5467 207.463 23.96C207.65 22.6533 207.77 21.5067 207.823 20.52C207.237 20.7867 206.597 21.2267 205.903 21.84C205.237 22.4267 204.49 23.1733 203.663 24.08C202.917 24.9067 202.263 25.6933 201.703 26.44C201.17 27.16 200.73 27.84 200.383 28.48C200.01 29.2 199.73 29.9733 199.543 30.8C199.437 31.2267 199.277 31.44 199.063 31.44ZM201.183 19.64L201.543 18.32C201.41 18.4267 201.157 18.56 200.783 18.72L201.183 19.64ZM218.627 31.16C217.907 31.16 217.347 30.7867 216.947 30.04C216.627 29.4267 216.467 28.72 216.467 27.92C216.467 27.52 216.494 27.08 216.547 26.6C216.627 26.0933 216.734 25.5467 216.867 24.96C215.187 28.6933 213.454 30.56 211.667 30.56C210.574 30.56 210.027 29.8533 210.027 28.44C210.027 26.1733 211.12 23.8267 213.307 21.4C215.52 18.92 217.72 17.68 219.907 17.68C220.947 17.68 221.467 18.1333 221.467 19.04C221.467 20.16 220.72 21.28 219.227 22.4C218.454 24.32 218.067 26.2933 218.067 28.32C218.067 29.84 218.4 30.6 219.067 30.6C220 30.6 221.6 28.92 223.867 25.56C224.027 25.3467 224.147 25.24 224.227 25.24C224.307 25.24 224.347 25.2933 224.347 25.4C224.347 25.5333 224.294 25.6667 224.187 25.8C221.787 29.3733 219.934 31.16 218.627 31.16ZM211.827 29.32C213.507 29.32 215.134 27.4533 216.707 23.72C216.494 23.7733 216.294 23.8267 216.107 23.88C215.947 23.9067 215.8 23.92 215.667 23.92C215.56 23.92 215.507 23.88 215.507 23.8C215.507 23.6667 215.694 23.5333 216.067 23.4L217.307 22.68C217.36 22.2267 217.64 21.64 218.147 20.92C218.654 20.1733 219.134 19.8 219.587 19.8C219.747 19.8 219.827 19.92 219.827 20.16C219.827 20.3467 219.76 20.64 219.627 21.04C220.054 20.4533 220.267 19.88 220.267 19.32C220.267 18.7067 219.987 18.4 219.427 18.4C218.094 18.4 216.347 19.72 214.187 22.36C212.027 24.9467 210.947 26.96 210.947 28.4C210.947 29.0133 211.24 29.32 211.827 29.32ZM237.763 39.36C237.496 39.36 237.363 39.2667 237.363 39.08C237.363 38.92 237.456 38.8267 237.643 38.8C237.856 38.7733 238.163 38.6933 238.563 38.56C239.843 38.0267 241.123 36.6667 242.403 34.48C239.496 34.4 237.229 33.6267 235.603 32.16C233.869 30.5867 233.003 28.3733 233.003 25.52C233.003 22.1333 234.243 18.68 236.723 15.16C239.096 11.8267 241.869 9.34667 245.043 7.72C244.296 7.64 243.696 7.6 243.243 7.6C242.709 7.6 242.149 7.64 241.562 7.72C241.003 7.77333 240.429 7.86666 239.843 8C238.349 8.34667 237.016 8.86667 235.843 9.56C234.216 10.52 233.403 11.5867 233.403 12.76C233.403 12.8933 233.416 13 233.443 13.08V13.4C233.443 13.7733 233.323 13.96 233.083 13.96C232.736 13.96 232.469 13.7067 232.283 13.2C232.096 12.8267 232.003 12.44 232.003 12.04C232.003 10.3867 233.483 9.10667 236.443 8.2C238.603 7.56 240.776 7.24 242.963 7.24C243.309 7.24 243.709 7.26667 244.163 7.32C244.616 7.34667 245.109 7.38667 245.643 7.44C246.309 7.14667 246.976 6.88 247.643 6.64C248.309 6.4 248.976 6.2 249.643 6.04C249.669 5.58667 249.683 5.16 249.683 4.76C249.683 4.33333 249.683 3.93333 249.683 3.56C249.683 3.29333 249.669 2.89333 249.643 2.36C249.616 1.8 249.603 1.38666 249.603 1.12C249.603 0.906665 249.669 0.799998 249.803 0.799998C249.856 0.799998 249.909 0.866664 249.963 0.999998C250.176 1.77333 250.283 2.85333 250.283 4.24C250.283 4.50667 250.283 4.78667 250.283 5.08C250.283 5.34667 250.269 5.62667 250.243 5.92C250.776 5.81333 251.296 5.73333 251.803 5.68C252.309 5.62667 252.803 5.6 253.283 5.6C255.816 5.6 257.816 6.26666 259.283 7.6C260.776 8.90667 261.523 10.7867 261.523 13.24V13.44C261.523 13.8933 261.336 14.12 260.963 14.12C260.749 14.12 260.496 14.04 260.203 13.88C258.976 13.1333 257.949 12.5333 257.123 12.08C256.323 11.6 255.709 11.2533 255.283 11.04C254.376 10.56 253.483 10.1333 252.603 9.76C251.723 9.38667 250.856 9.06667 250.003 8.8C249.869 10.08 249.683 11.4133 249.443 12.8C249.203 14.16 248.936 15.5733 248.643 17.04C249.069 16.6933 249.429 16.52 249.723 16.52C250.016 16.52 250.163 16.6933 250.163 17.04C250.163 17.6 249.909 18.2267 249.403 18.92C248.869 19.6133 248.363 20.0933 247.883 20.36C247.269 22.8667 246.603 25.1733 245.883 27.28C245.189 29.36 244.443 31.2267 243.643 32.88C243.829 32.9067 244.003 32.92 244.163 32.92C244.349 32.92 244.536 32.92 244.723 32.92C247.869 32.92 250.949 32.1467 253.963 30.6C257.109 29.0533 259.509 26.9867 261.163 24.4C261.376 24.08 261.509 23.92 261.563 23.92C261.589 23.9467 261.603 23.9867 261.603 24.04C261.603 24.2533 261.549 24.4533 261.443 24.64C259.789 27.44 257.096 29.8 253.363 31.72C249.763 33.5067 246.256 34.4267 242.843 34.48C241.029 37.7333 239.336 39.36 237.763 39.36ZM259.883 11.8C260.096 11.8 260.203 11.6533 260.203 11.36C260.203 11.0667 260.109 10.7467 259.923 10.4C259.256 9.14667 258.056 8.18667 256.323 7.52C254.883 6.93333 253.336 6.64 251.683 6.64C251.416 6.64 251.163 6.65333 250.923 6.68C250.683 6.68 250.429 6.69333 250.163 6.72L250.043 8.16C251.643 8.50667 253.216 8.96 254.763 9.52C256.336 10.08 257.869 10.7733 259.363 11.6C259.576 11.7333 259.749 11.8 259.883 11.8ZM249.483 8.04L249.563 6.76C248.496 6.92 247.483 7.18667 246.523 7.56L249.483 8.04ZM243.243 32.84C244.069 31.1867 244.829 29.3067 245.523 27.2C246.243 25.0667 246.896 22.72 247.483 20.16C246.763 19.2267 246.403 18.2933 246.403 17.36C246.403 16.5067 246.629 16.08 247.083 16.08C247.456 16.08 247.803 16.44 248.123 17.16C248.736 14.1467 249.176 11.3067 249.443 8.64C248.856 8.45333 248.256 8.30666 247.643 8.2C247.056 8.06666 246.456 7.94666 245.843 7.84C242.803 9.25333 240.296 11.5067 238.323 14.6C236.323 17.72 235.323 20.9467 235.323 24.28C235.323 26.7867 236.016 28.7867 237.403 30.28C238.789 31.7467 240.736 32.6 243.243 32.84ZM260.794 32.24C260.474 32.24 260.341 32.1333 260.394 31.92C260.314 31.76 260.128 31.4133 259.834 30.88C259.514 30.4267 259.354 30.1467 259.354 30.04C259.354 29.8267 259.448 29.7067 259.634 29.68C259.901 29.52 260.181 29.32 260.474 29.08C260.768 28.84 261.088 28.5733 261.434 28.28C263.114 23.3733 265.901 16.64 269.794 8.08C269.901 7.81333 270.034 7.49333 270.194 7.12C270.381 6.74667 270.594 6.30667 270.834 5.8C271.208 5.18666 271.914 4.88 272.954 4.88C273.354 4.88 273.554 4.97333 273.554 5.16C273.554 5.21333 273.528 5.26666 273.474 5.32L271.154 9.68C269.314 13.1467 267.754 16.2667 266.474 19.04C265.194 21.8133 264.181 24.2533 263.434 26.36C264.928 24.8667 266.154 23.5333 267.114 22.36C268.101 21.16 268.848 20.1067 269.354 19.2C269.408 19.0667 269.501 18.88 269.634 18.64C269.794 18.3733 270.061 18.24 270.434 18.24C270.754 18.24 270.914 18.3467 270.914 18.56C270.914 18.6933 270.888 18.88 270.834 19.12C270.808 19.36 270.768 19.6667 270.714 20.04C270.661 20.3867 270.621 20.6933 270.594 20.96C270.568 21.2 270.554 21.4133 270.554 21.6C270.554 23.2267 270.794 24.8667 271.274 26.52C271.968 28.8133 272.914 29.96 274.114 29.96C274.354 29.96 274.621 29.8933 274.914 29.76C275.208 29.6267 275.394 29.56 275.474 29.56C275.688 29.56 275.794 29.6667 275.794 29.88C275.794 30.1467 275.528 30.3867 274.994 30.6C274.434 30.8133 274.008 30.92 273.714 30.92C272.381 30.92 271.168 29.84 270.074 27.68C269.141 25.7333 268.674 23.92 268.674 22.24C268.674 22.1067 268.674 21.9867 268.674 21.88C268.674 21.7733 268.688 21.6667 268.714 21.56C268.234 22.2533 267.514 23.1067 266.554 24.12C265.594 25.1333 264.408 26.3067 262.994 27.64C262.861 28.0933 262.728 28.5333 262.594 28.96C262.488 29.3867 262.394 29.7867 262.314 30.16L262.114 31.16C261.954 31.88 261.514 32.24 260.794 32.24ZM260.594 31C260.648 30.7867 260.701 30.5467 260.754 30.28C260.834 30.0133 260.928 29.7467 261.034 29.48L260.194 30.16C260.328 30.3467 260.461 30.6267 260.594 31ZM282.768 31.16C282.048 31.16 281.488 30.7867 281.088 30.04C280.768 29.4267 280.608 28.72 280.608 27.92C280.608 27.52 280.634 27.08 280.688 26.6C280.768 26.0933 280.874 25.5467 281.008 24.96C279.328 28.6933 277.594 30.56 275.808 30.56C274.714 30.56 274.167 29.8533 274.167 28.44C274.167 26.1733 275.261 23.8267 277.448 21.4C279.661 18.92 281.861 17.68 284.048 17.68C285.088 17.68 285.608 18.1333 285.608 19.04C285.608 20.16 284.861 21.28 283.368 22.4C282.594 24.32 282.208 26.2933 282.208 28.32C282.208 29.84 282.541 30.6 283.208 30.6C284.141 30.6 285.741 28.92 288.008 25.56C288.168 25.3467 288.288 25.24 288.368 25.24C288.448 25.24 288.488 25.2933 288.488 25.4C288.488 25.5333 288.434 25.6667 288.328 25.8C285.928 29.3733 284.074 31.16 282.768 31.16ZM275.968 29.32C277.648 29.32 279.274 27.4533 280.848 23.72C280.634 23.7733 280.434 23.8267 280.248 23.88C280.088 23.9067 279.941 23.92 279.808 23.92C279.701 23.92 279.648 23.88 279.648 23.8C279.648 23.6667 279.834 23.5333 280.208 23.4L281.448 22.68C281.501 22.2267 281.781 21.64 282.288 20.92C282.794 20.1733 283.274 19.8 283.728 19.8C283.888 19.8 283.968 19.92 283.968 20.16C283.968 20.3467 283.901 20.64 283.768 21.04C284.194 20.4533 284.408 19.88 284.408 19.32C284.408 18.7067 284.128 18.4 283.568 18.4C282.234 18.4 280.488 19.72 278.328 22.36C276.168 24.9467 275.088 26.96 275.088 28.4C275.088 29.0133 275.381 29.32 275.968 29.32ZM289.692 31.12C289.505 31.12 289.265 31.04 288.972 30.88C288.678 30.6933 288.532 30.52 288.532 30.36L289.012 29.28C289.465 28.24 289.892 27.2267 290.292 26.24C290.718 25.2267 291.065 24.2133 291.332 23.2C291.598 22.2933 291.732 21.1733 291.732 19.84C291.652 20.1067 291.478 20.4933 291.212 21C290.945 21.5067 290.585 22.1467 290.132 22.92C289.705 23.6667 289.318 24.2933 288.972 24.8C288.652 25.28 288.385 25.6667 288.172 25.96C288.172 25.9867 288.145 26 288.092 26C287.958 26 287.892 25.9467 287.892 25.84C287.892 25.7867 287.905 25.7467 287.932 25.72L289.172 23.76C289.892 22.6133 290.465 21.5733 290.892 20.64C291.318 19.68 291.625 18.84 291.812 18.12C291.972 17.4267 292.238 17.08 292.612 17.08C293.038 17.08 293.252 17.6133 293.252 18.68C293.252 20.6 292.638 22.96 291.412 25.76C292.852 23.9467 293.852 22.7467 294.412 22.16C295.932 20.5333 297.118 19.72 297.972 19.72C298.825 19.72 299.252 20.28 299.252 21.4C299.252 22.1733 299.038 22.8533 298.612 23.44C298.105 24.1867 297.638 24.56 297.212 24.56C297.132 24.56 297.092 24.5067 297.092 24.4C297.092 24.4 297.238 24.0667 297.532 23.4C297.825 22.7333 297.972 22.16 297.972 21.68C297.972 20.96 297.745 20.6 297.292 20.6C296.598 20.6 295.558 21.4133 294.172 23.04C293.585 23.7067 293.078 24.3333 292.652 24.92C292.225 25.48 291.878 25.9867 291.612 26.44C291.585 26.52 291.452 26.84 291.212 27.4C290.972 27.96 290.665 28.7867 290.292 29.88L289.892 31.04C289.838 31.0933 289.772 31.12 289.692 31.12ZM307.103 31.16C306.383 31.16 305.823 30.7867 305.423 30.04C305.103 29.4267 304.943 28.72 304.943 27.92C304.943 27.52 304.97 27.08 305.023 26.6C305.103 26.0933 305.21 25.5467 305.343 24.96C303.663 28.6933 301.93 30.56 300.143 30.56C299.05 30.56 298.503 29.8533 298.503 28.44C298.503 26.1733 299.597 23.8267 301.783 21.4C303.997 18.92 306.197 17.68 308.383 17.68C309.423 17.68 309.943 18.1333 309.943 19.04C309.943 20.16 309.197 21.28 307.703 22.4C306.93 24.32 306.543 26.2933 306.543 28.32C306.543 29.84 306.877 30.6 307.543 30.6C308.477 30.6 310.077 28.92 312.343 25.56C312.503 25.3467 312.623 25.24 312.703 25.24C312.783 25.24 312.823 25.2933 312.823 25.4C312.823 25.5333 312.77 25.6667 312.663 25.8C310.263 29.3733 308.41 31.16 307.103 31.16ZM300.303 29.32C301.983 29.32 303.61 27.4533 305.183 23.72C304.97 23.7733 304.77 23.8267 304.583 23.88C304.423 23.9067 304.277 23.92 304.143 23.92C304.037 23.92 303.983 23.88 303.983 23.8C303.983 23.6667 304.17 23.5333 304.543 23.4L305.783 22.68C305.837 22.2267 306.117 21.64 306.623 20.92C307.13 20.1733 307.61 19.8 308.063 19.8C308.223 19.8 308.303 19.92 308.303 20.16C308.303 20.3467 308.237 20.64 308.103 21.04C308.53 20.4533 308.743 19.88 308.743 19.32C308.743 18.7067 308.463 18.4 307.903 18.4C306.57 18.4 304.823 19.72 302.663 22.36C300.503 24.9467 299.423 26.96 299.423 28.4C299.423 29.0133 299.717 29.32 300.303 29.32ZM312.228 31.44C311.987 31.44 311.867 31.2667 311.867 30.92V30.84C311.974 30.4667 312.081 30 312.188 29.44C312.321 28.88 312.468 28.2267 312.628 27.48C312.788 26.7333 312.988 25.8 313.228 24.68C313.468 23.5333 313.761 22.2133 314.108 20.72L313.628 19.56C313.494 19.2133 313.388 18.96 313.308 18.8C313.254 18.64 313.228 18.56 313.228 18.56C313.228 18.3733 313.454 18.2 313.908 18.04C315.241 17.5333 316.094 17.28 316.468 17.28C316.868 17.28 317.068 17.4 317.068 17.64C317.041 17.56 316.361 19.2667 315.028 22.76V23.12C315.028 23.8667 314.908 24.24 314.668 24.24C314.641 24.24 314.601 24.2 314.548 24.12C314.334 24.7867 314.121 25.4267 313.908 26.04C313.721 26.6267 313.548 27.2133 313.388 27.8C313.974 26.84 314.574 25.92 315.188 25.04C315.828 24.16 316.481 23.3333 317.148 22.56C319.148 20.24 320.801 19.08 322.108 19.08C322.721 19.08 323.028 19.32 323.028 19.8C323.028 19.96 322.988 20.16 322.908 20.4C322.694 21.3067 322.401 22.4533 322.028 23.84C321.654 25.2 321.214 26.7867 320.708 28.6C322.254 27.4533 323.454 26.2267 324.308 24.92C324.441 24.76 324.534 24.68 324.588 24.68C324.668 24.68 324.708 24.7333 324.708 24.84C324.708 24.8933 324.668 24.9867 324.588 25.12C323.414 27.2 321.988 28.8533 320.308 30.08C320.201 30.24 320.028 30.32 319.788 30.32C319.601 30.32 319.508 30.2133 319.508 30C319.508 29.9467 319.548 29.7067 319.628 29.28C319.708 28.8267 319.814 28.2 319.948 27.4C320.081 26.8133 320.201 26.24 320.308 25.68C320.414 25.12 320.521 24.5467 320.628 23.96C320.814 22.6533 320.934 21.5067 320.988 20.52C320.401 20.7867 319.761 21.2267 319.068 21.84C318.401 22.4267 317.654 23.1733 316.828 24.08C316.081 24.9067 315.428 25.6933 314.868 26.44C314.334 27.16 313.894 27.84 313.548 28.48C313.174 29.2 312.894 29.9733 312.708 30.8C312.601 31.2267 312.441 31.44 312.228 31.44ZM314.348 19.64L314.708 18.32C314.574 18.4267 314.321 18.56 313.948 18.72L314.348 19.64Z" fill="black"/>
<path d="M3.56 36.36C2.52 36.36 1.68 36.0533 1.04 35.44C0.4 34.8533 0.08 34.0533 0.08 33.04C0.08 31.8133 0.52 30.6267 1.4 29.48C1.48 29.3733 1.54667 29.32 1.6 29.32C1.68 29.32 1.72 29.3867 1.72 29.52C1.72 29.52 1.68 29.6133 1.6 29.8C1.52 29.96 1.41333 30.2133 1.28 30.56C1.01333 31.2 0.88 31.8267 0.88 32.44C0.88 33.32 1.14667 34.08 1.68 34.72C2.21333 35.3867 2.90667 35.72 3.76 35.72C7.09333 35.72 10.44 34.08 13.8 30.8C16.7333 27.8933 19.2267 24.2533 21.28 19.88C23.2267 15.72 24.2 12.0533 24.2 8.88C24.2 8.74667 24.2 8.62667 24.2 8.52C24.2 8.38667 24.1867 8.26667 24.16 8.16C23.68 8.37333 23.0133 8.56 22.16 8.72C21.6 11.3067 20.76 14.0267 19.64 16.88C19.8 16.8 19.9467 16.76 20.08 16.76C20.3467 16.76 20.48 16.9067 20.48 17.2C20.48 17.7333 20.2133 18.3333 19.68 19C19.1467 19.64 18.6133 20.1333 18.08 20.48C16.4533 23.9467 14.8 26.7733 13.12 28.96C11.4667 31.1467 9.78667 32.7067 8.08 33.64C7.25333 34.12 6.48 34.36 5.76 34.36C5.49333 34.36 5.36 34.2667 5.36 34.08C5.36 33.92 5.49333 33.8133 5.76 33.76C6.05333 33.7333 6.53333 33.6267 7.2 33.44C9.09333 32.6933 11.1333 30.8267 13.32 27.84C14.0933 26.7467 14.84 25.5867 15.56 24.36C16.28 23.1333 16.96 21.84 17.6 20.48C16.96 19.6267 16.64 18.7333 16.64 17.8C16.64 16.7867 16.9067 16.28 17.44 16.28C17.8933 16.28 18.2533 16.7333 18.52 17.64L19.04 17.24C19.6 15.8267 20.0933 14.4133 20.52 13C20.9467 11.5867 21.3067 10.1867 21.6 8.8L16.44 9.4C14.8667 9.58666 13.52 9.76 12.4 9.92C11.28 10.08 10.3867 10.2533 9.72 10.44C6.54667 11.2933 4.96 12.52 4.96 14.12C4.96 15.3733 5.58667 16.6267 6.84 17.88C7.96 18.9467 9.18667 19.6667 10.52 20.04C10.68 20.0667 10.76 20.1067 10.76 20.16C10.76 20.2667 10.6533 20.32 10.44 20.32C8.89333 20.32 7.48 19.68 6.2 18.4C4.92 17.0667 4.28 15.64 4.28 14.12C4.28 12.44 5.52 11.0267 8 9.88C9.84 9.02667 12.3733 8.32 15.6 7.76C16.6667 7.62667 17.72 7.48 18.76 7.32C19.8267 7.16 20.8933 7 21.96 6.84C22.2 5.18667 22.32 3.2 22.32 0.879999C22.32 0.666665 22.4 0.559999 22.56 0.559999C22.6133 0.559999 22.6667 0.626665 22.72 0.759998C22.7467 1.02666 22.76 1.33333 22.76 1.68C22.7867 2.02667 22.8 2.4 22.8 2.8C22.8 3.41333 22.7733 4.05333 22.72 4.72C22.6667 5.38667 22.5867 6.06667 22.48 6.76C22.8533 6.70667 23.1867 6.64 23.48 6.56C23.7733 6.48 24.0133 6.41333 24.2 6.36C24.3333 6.14667 24.52 6.04 24.76 6.04C25.08 6.04 25.2533 6.32 25.28 6.88C25.3067 7.25333 25.3467 7.64 25.4 8.04C25.48 8.44 25.5867 9.04 25.72 9.84L26.48 13.96C27.04 17.0267 27.6267 19.6933 28.24 21.96C28.88 24.2 29.5333 26.0533 30.2 27.52C30.76 26.2667 31.36 23.9733 32 20.64C32.96 15.7067 33.76 12.3333 34.4 10.52C35.8133 6.6 37.7867 3.92 40.32 2.48C41.0667 2.05333 41.8267 1.84 42.6 1.84C43.88 1.84 45.12 2.58667 46.32 4.08C47.4933 5.49333 48.08 6.82667 48.08 8.08C48.08 8.18667 48.04 8.24 47.96 8.24C47.88 8.24 47.8 8.13333 47.72 7.92C47.3733 6.82667 46.8533 5.89333 46.16 5.12C45.3333 4.29333 44.3733 3.88 43.28 3.88C42.72 3.88 42.12 4.02667 41.48 4.32C38.9733 5.46667 36.9333 7.97333 35.36 11.84C34.64 13.6533 33.72 16.9067 32.6 21.6C32.1467 23.5733 31.8667 24.72 31.76 25.04C31.5733 25.68 31.3867 26.28 31.2 26.84C31.0133 27.3733 30.8133 27.8667 30.6 28.32C31.7733 30.6933 33.0533 31.88 34.44 31.88C35.1867 31.88 36.0133 31.52 36.92 30.8C37.8533 30.08 38.28 29.72 38.2 29.72C38.2533 29.72 38.28 29.76 38.28 29.84C38.28 29.9733 38.2 30.12 38.04 30.28C36.44 31.9067 34.8533 32.72 33.28 32.72C31.76 32.72 30.3867 31.8667 29.16 30.16C28.8933 30.3467 28.5733 30.44 28.2 30.44C27.64 30.44 27.36 30.2667 27.36 29.92C27.36 29.84 27.5067 29.7733 27.8 29.72C28.2267 29.64 28.52 29.5467 28.68 29.44C27.4533 27.4933 26.56 24.6667 26 20.96C25.9467 20.5333 25.84 19.5733 25.68 18.08C25.52 16.5867 25.32 14.5467 25.08 11.96C24.44 15.7733 22.9867 19.56 20.72 23.32C18.4533 27.16 15.84 30.2667 12.88 32.64C9.81333 35.12 6.70667 36.36 3.56 36.36ZM46.3222 31.16C45.6022 31.16 45.0422 30.7867 44.6422 30.04C44.3222 29.4267 44.1622 28.72 44.1622 27.92C44.1622 27.52 44.1889 27.08 44.2422 26.6C44.3222 26.0933 44.4289 25.5467 44.5622 24.96C42.8822 28.6933 41.1489 30.56 39.3622 30.56C38.2689 30.56 37.7222 29.8533 37.7222 28.44C37.7222 26.1733 38.8155 23.8267 41.0022 21.4C43.2155 18.92 45.4155 17.68 47.6022 17.68C48.6422 17.68 49.1622 18.1333 49.1622 19.04C49.1622 20.16 48.4155 21.28 46.9222 22.4C46.1489 24.32 45.7622 26.2933 45.7622 28.32C45.7622 29.84 46.0955 30.6 46.7622 30.6C47.6955 30.6 49.2955 28.92 51.5622 25.56C51.7222 25.3467 51.8422 25.24 51.9222 25.24C52.0022 25.24 52.0422 25.2933 52.0422 25.4C52.0422 25.5333 51.9889 25.6667 51.8822 25.8C49.4822 29.3733 47.6289 31.16 46.3222 31.16ZM39.5222 29.32C41.2022 29.32 42.8289 27.4533 44.4022 23.72C44.1889 23.7733 43.9889 23.8267 43.8022 23.88C43.6422 23.9067 43.4955 23.92 43.3622 23.92C43.2555 23.92 43.2022 23.88 43.2022 23.8C43.2022 23.6667 43.3889 23.5333 43.7622 23.4L45.0022 22.68C45.0555 22.2267 45.3355 21.64 45.8422 20.92C46.3489 20.1733 46.8289 19.8 47.2822 19.8C47.4422 19.8 47.5222 19.92 47.5222 20.16C47.5222 20.3467 47.4555 20.64 47.3222 21.04C47.7489 20.4533 47.9622 19.88 47.9622 19.32C47.9622 18.7067 47.6822 18.4 47.1222 18.4C45.7889 18.4 44.0422 19.72 41.8822 22.36C39.7222 24.9467 38.6422 26.96 38.6422 28.4C38.6422 29.0133 38.9355 29.32 39.5222 29.32ZM53.2463 31.12C53.0596 31.12 52.8196 31.04 52.5263 30.88C52.2329 30.6933 52.0863 30.52 52.0863 30.36L52.5663 29.28C53.0196 28.24 53.4463 27.2267 53.8463 26.24C54.2729 25.2267 54.6196 24.2133 54.8863 23.2C55.1529 22.2933 55.2863 21.1733 55.2863 19.84C55.2063 20.1067 55.0329 20.4933 54.7663 21C54.4996 21.5067 54.1396 22.1467 53.6863 22.92C53.2596 23.6667 52.8729 24.2933 52.5263 24.8C52.2063 25.28 51.9396 25.6667 51.7263 25.96C51.7263 25.9867 51.6996 26 51.6463 26C51.5129 26 51.4463 25.9467 51.4463 25.84C51.4463 25.7867 51.4596 25.7467 51.4863 25.72L52.7262 23.76C53.4463 22.6133 54.0196 21.5733 54.4463 20.64C54.8729 19.68 55.1796 18.84 55.3663 18.12C55.5263 17.4267 55.7929 17.08 56.1663 17.08C56.5929 17.08 56.8063 17.6133 56.8063 18.68C56.8063 20.6 56.1929 22.96 54.9663 25.76C56.4063 23.9467 57.4063 22.7467 57.9663 22.16C59.4863 20.5333 60.6729 19.72 61.5263 19.72C62.3796 19.72 62.8063 20.28 62.8063 21.4C62.8063 22.1733 62.5929 22.8533 62.1663 23.44C61.6596 24.1867 61.1929 24.56 60.7663 24.56C60.6863 24.56 60.6463 24.5067 60.6463 24.4C60.6463 24.4 60.7929 24.0667 61.0863 23.4C61.3796 22.7333 61.5263 22.16 61.5263 21.68C61.5263 20.96 61.2996 20.6 60.8463 20.6C60.1529 20.6 59.1129 21.4133 57.7263 23.04C57.1396 23.7067 56.6329 24.3333 56.2063 24.92C55.7796 25.48 55.4329 25.9867 55.1663 26.44C55.1396 26.52 55.0063 26.84 54.7663 27.4C54.5263 27.96 54.2196 28.7867 53.8463 29.88L53.4463 31.04C53.3929 31.0933 53.3263 31.12 53.2463 31.12ZM70.6581 31.16C69.9381 31.16 69.3781 30.7867 68.9781 30.04C68.6581 29.4267 68.4981 28.72 68.4981 27.92C68.4981 27.52 68.5248 27.08 68.5781 26.6C68.6581 26.0933 68.7648 25.5467 68.8981 24.96C67.2181 28.6933 65.4848 30.56 63.6981 30.56C62.6048 30.56 62.0581 29.8533 62.0581 28.44C62.0581 26.1733 63.1515 23.8267 65.3381 21.4C67.5515 18.92 69.7515 17.68 71.9381 17.68C72.9781 17.68 73.4981 18.1333 73.4981 19.04C73.4981 20.16 72.7515 21.28 71.2581 22.4C70.4848 24.32 70.0981 26.2933 70.0981 28.32C70.0981 29.84 70.4315 30.6 71.0981 30.6C72.0315 30.6 73.6315 28.92 75.8981 25.56C76.0581 25.3467 76.1781 25.24 76.2581 25.24C76.3381 25.24 76.3781 25.2933 76.3781 25.4C76.3781 25.5333 76.3248 25.6667 76.2181 25.8C73.8181 29.3733 71.9648 31.16 70.6581 31.16ZM63.8581 29.32C65.5381 29.32 67.1648 27.4533 68.7381 23.72C68.5248 23.7733 68.3248 23.8267 68.1381 23.88C67.9781 23.9067 67.8315 23.92 67.6981 23.92C67.5915 23.92 67.5381 23.88 67.5381 23.8C67.5381 23.6667 67.7248 23.5333 68.0981 23.4L69.3381 22.68C69.3915 22.2267 69.6715 21.64 70.1781 20.92C70.6848 20.1733 71.1648 19.8 71.6181 19.8C71.7781 19.8 71.8581 19.92 71.8581 20.16C71.8581 20.3467 71.7915 20.64 71.6581 21.04C72.0848 20.4533 72.2981 19.88 72.2981 19.32C72.2981 18.7067 72.0181 18.4 71.4581 18.4C70.1248 18.4 68.3781 19.72 66.2181 22.36C64.0581 24.9467 62.9781 26.96 62.9781 28.4C62.9781 29.0133 63.2715 29.32 63.8581 29.32ZM71.2391 46.92C69.7457 46.92 68.1857 46.3067 66.5591 45.08C64.9324 43.8533 64.1191 42.5733 64.1191 41.24C64.1191 41.1333 64.1591 41.08 64.2391 41.08C64.3457 41.08 64.4124 41.16 64.4391 41.32C65.5591 44.12 67.5857 45.52 70.5191 45.52C72.0124 45.52 73.3991 45.16 74.6791 44.44C77.1591 43.0533 79.0924 40.88 80.4791 37.92C80.9057 36.9867 81.3191 35.8 81.7191 34.36C82.1457 32.9467 82.5457 31.28 82.9191 29.36C83.0791 28.5067 83.2791 27.44 83.5191 26.16C83.7591 24.88 84.1057 23.4 84.5591 21.72L85.2391 19.24C83.5591 20.5467 81.5457 24.2933 79.1991 30.48C79.1991 30.5333 79.1457 30.56 79.0391 30.56C78.8524 30.56 78.6524 30.4667 78.4391 30.28C78.2257 30.0933 78.1191 29.8933 78.1191 29.68C78.1191 29.68 78.2257 29.4 78.4391 28.84C78.6791 28.3067 78.7991 28.0267 78.7991 28C79.3057 26.5067 79.5591 24.32 79.5591 21.44C79.5591 19.2533 79.0924 18.16 78.1591 18.16C77.6524 18.16 77.0257 18.5067 76.2791 19.2C75.5857 19.8667 75.2124 20.2 75.1591 20.2C75.0791 20.2 75.0391 20.1467 75.0391 20.04C75.0391 20.0133 75.0657 19.92 75.1191 19.76C75.4924 19.1733 76.0924 18.5867 76.9191 18C77.7991 17.36 78.5324 17.04 79.1191 17.04C80.2391 17.04 80.7991 18.12 80.7991 20.28C80.7991 22.04 80.4391 23.9867 79.7191 26.12C81.9324 22.04 83.8124 19.6 85.3591 18.8C85.7591 17.36 86.2124 16.3467 86.7191 15.76C87.3857 14.9333 88.3724 14.52 89.6791 14.52C90.1591 14.52 90.3991 14.6 90.3991 14.76C90.3991 14.84 90.3324 14.9067 90.1991 14.96C89.8524 15.04 89.5457 15.1467 89.2791 15.28C88.0524 16.16 87.0124 18.44 86.1591 22.12C85.5191 24.8133 85.0257 26.8933 84.6791 28.36C84.3324 29.8 84.1324 30.6267 84.0791 30.84C83.0924 34.4133 81.9724 37.3467 80.7191 39.64C79.0924 42.5467 77.0924 44.6667 74.7191 46C73.6257 46.6133 72.4657 46.92 71.2391 46.92ZM96.7519 31.16C96.0319 31.16 95.4719 30.7867 95.0719 30.04C94.7519 29.4267 94.5919 28.72 94.5919 27.92C94.5919 27.52 94.6185 27.08 94.6719 26.6C94.7519 26.0933 94.8585 25.5467 94.9919 24.96C93.3119 28.6933 91.5785 30.56 89.7919 30.56C88.6985 30.56 88.1519 29.8533 88.1519 28.44C88.1519 26.1733 89.2452 23.8267 91.4319 21.4C93.6452 18.92 95.8452 17.68 98.0319 17.68C99.0719 17.68 99.5919 18.1333 99.5919 19.04C99.5919 20.16 98.8452 21.28 97.3519 22.4C96.5785 24.32 96.1919 26.2933 96.1919 28.32C96.1919 29.84 96.5252 30.6 97.1919 30.6C98.1252 30.6 99.7252 28.92 101.992 25.56C102.152 25.3467 102.272 25.24 102.352 25.24C102.432 25.24 102.472 25.2933 102.472 25.4C102.472 25.5333 102.419 25.6667 102.312 25.8C99.9119 29.3733 98.0585 31.16 96.7519 31.16ZM89.9519 29.32C91.6319 29.32 93.2585 27.4533 94.8319 23.72C94.6185 23.7733 94.4185 23.8267 94.2319 23.88C94.0719 23.9067 93.9252 23.92 93.7919 23.92C93.6852 23.92 93.6319 23.88 93.6319 23.8C93.6319 23.6667 93.8185 23.5333 94.1919 23.4L95.4319 22.68C95.4852 22.2267 95.7652 21.64 96.2719 20.92C96.7785 20.1733 97.2585 19.8 97.7119 19.8C97.8719 19.8 97.9519 19.92 97.9519 20.16C97.9519 20.3467 97.8852 20.64 97.7519 21.04C98.1785 20.4533 98.3919 19.88 98.3919 19.32C98.3919 18.7067 98.1119 18.4 97.5519 18.4C96.2185 18.4 94.4719 19.72 92.3119 22.36C90.1519 24.9467 89.0719 26.96 89.0719 28.4C89.0719 29.0133 89.3652 29.32 89.9519 29.32ZM101.876 31.44C101.636 31.44 101.516 31.2667 101.516 30.92V30.84C101.623 30.4667 101.729 30 101.836 29.44C101.969 28.88 102.116 28.2267 102.276 27.48C102.436 26.7333 102.636 25.8 102.876 24.68C103.116 23.5333 103.409 22.2133 103.756 20.72L103.276 19.56C103.143 19.2133 103.036 18.96 102.956 18.8C102.903 18.64 102.876 18.56 102.876 18.56C102.876 18.3733 103.103 18.2 103.556 18.04C104.889 17.5333 105.743 17.28 106.116 17.28C106.516 17.28 106.716 17.4 106.716 17.64C106.689 17.56 106.009 19.2667 104.676 22.76V23.12C104.676 23.8667 104.556 24.24 104.316 24.24C104.289 24.24 104.249 24.2 104.196 24.12C103.983 24.7867 103.769 25.4267 103.556 26.04C103.369 26.6267 103.196 27.2133 103.036 27.8C103.623 26.84 104.223 25.92 104.836 25.04C105.476 24.16 106.129 23.3333 106.796 22.56C108.796 20.24 110.449 19.08 111.756 19.08C112.369 19.08 112.676 19.32 112.676 19.8C112.676 19.96 112.636 20.16 112.556 20.4C112.343 21.3067 112.049 22.4533 111.676 23.84C111.303 25.2 110.863 26.7867 110.356 28.6C111.903 27.4533 113.103 26.2267 113.956 24.92C114.089 24.76 114.183 24.68 114.236 24.68C114.316 24.68 114.356 24.7333 114.356 24.84C114.356 24.8933 114.316 24.9867 114.236 25.12C113.063 27.2 111.636 28.8533 109.956 30.08C109.849 30.24 109.676 30.32 109.436 30.32C109.249 30.32 109.156 30.2133 109.156 30C109.156 29.9467 109.196 29.7067 109.276 29.28C109.356 28.8267 109.463 28.2 109.596 27.4C109.729 26.8133 109.849 26.24 109.956 25.68C110.063 25.12 110.169 24.5467 110.276 23.96C110.463 22.6533 110.583 21.5067 110.636 20.52C110.049 20.7867 109.409 21.2267 108.716 21.84C108.049 22.4267 107.303 23.1733 106.476 24.08C105.729 24.9067 105.076 25.6933 104.516 26.44C103.983 27.16 103.543 27.84 103.196 28.48C102.823 29.2 102.543 29.9733 102.356 30.8C102.249 31.2267 102.089 31.44 101.876 31.44ZM103.996 19.64L104.356 18.32C104.223 18.4267 103.969 18.56 103.596 18.72L103.996 19.64ZM121.439 31.16C120.719 31.16 120.159 30.7867 119.759 30.04C119.439 29.4267 119.279 28.72 119.279 27.92C119.279 27.52 119.306 27.08 119.359 26.6C119.439 26.0933 119.546 25.5467 119.679 24.96C117.999 28.6933 116.266 30.56 114.479 30.56C113.386 30.56 112.839 29.8533 112.839 28.44C112.839 26.1733 113.933 23.8267 116.119 21.4C118.333 18.92 120.533 17.68 122.719 17.68C123.759 17.68 124.279 18.1333 124.279 19.04C124.279 20.16 123.533 21.28 122.039 22.4C121.266 24.32 120.879 26.2933 120.879 28.32C120.879 29.84 121.213 30.6 121.879 30.6C122.813 30.6 124.413 28.92 126.679 25.56C126.839 25.3467 126.959 25.24 127.039 25.24C127.119 25.24 127.159 25.2933 127.159 25.4C127.159 25.5333 127.106 25.6667 126.999 25.8C124.599 29.3733 122.746 31.16 121.439 31.16ZM114.639 29.32C116.319 29.32 117.946 27.4533 119.519 23.72C119.306 23.7733 119.106 23.8267 118.919 23.88C118.759 23.9067 118.613 23.92 118.479 23.92C118.373 23.92 118.319 23.88 118.319 23.8C118.319 23.6667 118.506 23.5333 118.879 23.4L120.119 22.68C120.173 22.2267 120.453 21.64 120.959 20.92C121.466 20.1733 121.946 19.8 122.399 19.8C122.559 19.8 122.639 19.92 122.639 20.16C122.639 20.3467 122.573 20.64 122.439 21.04C122.866 20.4533 123.079 19.88 123.079 19.32C123.079 18.7067 122.799 18.4 122.239 18.4C120.906 18.4 119.159 19.72 116.999 22.36C114.839 24.9467 113.759 26.96 113.759 28.4C113.759 29.0133 114.053 29.32 114.639 29.32ZM127.603 30.88C127.363 30.88 127.243 30.7733 127.243 30.56C127.243 30.5333 127.243 30.5067 127.243 30.48C127.27 30.4533 127.297 30.4133 127.323 30.36V30.32C127.323 30.1867 127.363 30.0267 127.443 29.84C127.897 28.72 128.297 27.1867 128.643 25.24C128.723 24.7867 128.763 24.1067 128.763 23.2C128.763 22.88 128.71 22.3867 128.603 21.72C128.523 21.0533 128.483 20.56 128.483 20.24C128.483 20.0533 128.59 19.92 128.803 19.84L130.563 19.36C130.963 18.4533 131.63 18 132.563 18C132.963 18 133.097 18.16 132.963 18.48C133.283 18.3467 133.523 18.24 133.683 18.16C133.843 18.08 133.923 18.04 133.923 18.04C133.977 18.04 134.003 18.08 134.003 18.16C134.003 18.4 133.577 18.7067 132.723 19.08C132.27 20.1467 131.723 21.4933 131.083 23.12C130.47 24.72 129.75 26.6133 128.923 28.8C129.75 27.8667 130.457 27.0267 131.043 26.28C131.657 25.5333 132.163 24.8933 132.563 24.36C132.857 23.8267 133.257 23.1733 133.763 22.4C134.27 21.6 134.857 20.6933 135.523 19.68C135.897 19.2 136.457 18.96 137.203 18.96C137.95 18.96 138.323 19.2533 138.323 19.84C138.323 20.08 138.017 20.9733 137.403 22.52C136.657 24.36 136.283 25.3333 136.283 25.44C136.977 24.8267 137.63 24.1467 138.243 23.4C138.883 22.6267 139.483 21.8 140.043 20.92C140.15 20.7333 140.257 20.64 140.363 20.64C140.443 20.64 140.483 20.7067 140.483 20.84C140.483 21.1867 139.777 22.3333 138.363 24.28C137.937 24.8667 137.497 25.4533 137.043 26.04C136.59 26.6267 136.137 27.2133 135.683 27.8C135.603 27.9333 135.43 28 135.163 28C134.977 28 134.883 27.9067 134.883 27.72C134.883 27.5867 134.923 27.3467 135.003 27C135.083 26.6533 135.19 26.1867 135.323 25.6L135.963 23.08C136.07 22.6 136.15 22.1467 136.203 21.72C136.257 21.2933 136.283 20.8933 136.283 20.52C135.35 21.9333 134.123 23.52 132.603 25.28L128.643 29.8C128.563 30.52 128.217 30.88 127.603 30.88ZM145.003 30.28C143.537 30.28 142.39 29.3067 141.563 27.36C140.897 25.8667 140.563 24.28 140.563 22.6C140.563 21.6133 140.67 20.88 140.883 20.4C141.043 20.1067 141.457 19.96 142.123 19.96C142.39 19.96 142.55 20.0267 142.603 20.16C142.55 20.16 142.483 20.44 142.403 21C142.323 21.5067 142.283 22.0667 142.283 22.68C142.283 24.04 142.51 25.4267 142.963 26.84C143.603 28.68 144.497 29.6 145.643 29.6C145.83 29.6 146.07 29.5467 146.363 29.44C146.683 29.3067 146.91 29.24 147.043 29.24C147.177 29.24 147.243 29.28 147.243 29.36C147.243 29.5733 146.937 29.7867 146.323 30C145.763 30.1867 145.323 30.28 145.003 30.28ZM129.403 22.52C129.537 22.0667 129.683 21.6267 129.843 21.2C130.003 20.7733 130.15 20.3867 130.283 20.04L129.203 20.4C129.257 20.7467 129.297 21.0933 129.323 21.44C129.377 21.7867 129.403 22.1467 129.403 22.52ZM154.739 40.28C152.979 40.28 151.312 39.6267 149.739 38.32C148.032 36.96 147.179 35.44 147.179 33.76C147.179 33.5733 147.232 33.48 147.339 33.48C147.419 33.48 147.485 33.5867 147.539 33.8L148.139 35.36C149.259 37.5467 151.232 38.64 154.059 38.64C155.765 38.64 157.432 38.2133 159.059 37.36C162.552 35.52 165.272 32.88 167.219 29.44C167.832 28.3467 168.485 26.8933 169.179 25.08C169.872 23.2667 170.592 21.1067 171.339 18.6C171.685 17.4 172.125 15.9067 172.659 14.12C173.192 12.3067 173.805 10.2133 174.499 7.84L171.139 8.68C170.979 10.4133 170.699 12.24 170.299 14.16C170.672 13.84 170.992 13.68 171.259 13.68C171.472 13.68 171.579 13.8133 171.579 14.08C171.579 14.9867 170.899 16 169.539 17.12C169.005 19.0667 168.392 20.92 167.699 22.68C167.005 24.44 166.232 26.1333 165.379 27.76C163.085 32 160.659 34.8267 158.099 36.24C156.952 36.9067 155.979 37.24 155.179 37.24C154.939 37.24 154.819 37.1467 154.819 36.96C154.819 36.8267 154.925 36.7333 155.139 36.68C156.019 36.52 156.725 36.32 157.259 36.08C159.819 34.88 162.245 32.1467 164.539 27.88C165.392 26.3067 166.165 24.6533 166.859 22.92C167.579 21.16 168.219 19.3333 168.779 17.44C168.192 16.7467 167.899 15.9467 167.899 15.04C167.899 13.9733 168.179 13.44 168.739 13.44C169.059 13.44 169.339 13.7333 169.579 14.32C170.032 12.4267 170.352 10.6 170.539 8.84C160.992 11.6667 156.219 15.9467 156.219 21.68C156.219 23.3867 156.819 24.7067 158.019 25.64C159.112 26.52 160.525 26.96 162.259 26.96C162.392 26.96 162.605 26.9467 162.899 26.92C163.219 26.8667 163.459 26.84 163.619 26.84C163.725 26.84 163.779 26.8667 163.779 26.92C163.779 27.2133 163.125 27.36 161.819 27.36C159.872 27.36 158.245 26.9067 156.939 26C155.445 24.96 154.699 23.52 154.699 21.68C154.699 15.5467 160.005 11.04 170.619 8.16C170.672 7.54667 170.712 6.88 170.739 6.16C170.792 5.41333 170.819 4.62667 170.819 3.8C170.819 3.64 170.899 3.54666 171.059 3.52C171.219 3.54666 171.299 4.32 171.299 5.84C171.299 6.18667 171.285 6.54666 171.259 6.92C171.259 7.26666 171.245 7.62666 171.219 8L174.779 7.16C175.125 6.33333 175.472 5.64 175.819 5.08C176.165 4.49333 176.512 4.05333 176.859 3.76C177.765 3.06667 179.032 2.72 180.659 2.72C181.432 2.72 182.139 2.88 182.779 3.2C183.552 3.6 183.939 4.14667 183.939 4.84C183.939 5.69333 183.299 6.24 182.019 6.48L177.219 7.32C176.579 9.34667 175.939 11.36 175.299 13.36C174.659 15.36 174.032 17.36 173.419 19.36C171.792 24.0267 169.992 27.8267 168.019 30.76C165.485 34.4933 162.445 37.32 158.899 39.24C157.565 39.9333 156.179 40.28 154.739 40.28ZM177.579 6.68C178.165 6.62667 178.872 6.52 179.699 6.36C180.525 6.2 181.472 6 182.539 5.76C183.259 5.46667 183.619 5.08 183.619 4.6C183.619 3.66666 182.859 3.2 181.339 3.2C180.085 3.2 178.832 4.36 177.579 6.68ZM174.376 31.44C174.136 31.44 174.016 31.2667 174.016 30.92V30.84C174.123 30.4667 174.229 30 174.336 29.44C174.469 28.88 174.616 28.2267 174.776 27.48C174.936 26.7333 175.136 25.8 175.376 24.68C175.616 23.5333 175.909 22.2133 176.256 20.72L175.776 19.56C175.643 19.2133 175.536 18.96 175.456 18.8C175.403 18.64 175.376 18.56 175.376 18.56C175.376 18.3733 175.603 18.2 176.056 18.04C177.389 17.5333 178.243 17.28 178.616 17.28C179.016 17.28 179.216 17.4 179.216 17.64C179.189 17.56 178.509 19.2667 177.176 22.76V23.12C177.176 23.8667 177.056 24.24 176.816 24.24C176.789 24.24 176.749 24.2 176.696 24.12C176.483 24.7867 176.269 25.4267 176.056 26.04C175.869 26.6267 175.696 27.2133 175.536 27.8C176.123 26.84 176.723 25.92 177.336 25.04C177.976 24.16 178.629 23.3333 179.296 22.56C181.296 20.24 182.949 19.08 184.256 19.08C184.869 19.08 185.176 19.32 185.176 19.8C185.176 19.96 185.136 20.16 185.056 20.4C184.843 21.3067 184.549 22.4533 184.176 23.84C183.803 25.2 183.363 26.7867 182.856 28.6C184.403 27.4533 185.603 26.2267 186.456 24.92C186.589 24.76 186.683 24.68 186.736 24.68C186.816 24.68 186.856 24.7333 186.856 24.84C186.856 24.8933 186.816 24.9867 186.736 25.12C185.563 27.2 184.136 28.8533 182.456 30.08C182.349 30.24 182.176 30.32 181.936 30.32C181.749 30.32 181.656 30.2133 181.656 30C181.656 29.9467 181.696 29.7067 181.776 29.28C181.856 28.8267 181.963 28.2 182.096 27.4C182.229 26.8133 182.349 26.24 182.456 25.68C182.563 25.12 182.669 24.5467 182.776 23.96C182.963 22.6533 183.083 21.5067 183.136 20.52C182.549 20.7867 181.909 21.2267 181.216 21.84C180.549 22.4267 179.803 23.1733 178.976 24.08C178.229 24.9067 177.576 25.6933 177.016 26.44C176.483 27.16 176.043 27.84 175.696 28.48C175.323 29.2 175.043 29.9733 174.856 30.8C174.749 31.2267 174.589 31.44 174.376 31.44ZM176.496 19.64L176.856 18.32C176.723 18.4267 176.469 18.56 176.096 18.72L176.496 19.64ZM193.939 31.16C193.219 31.16 192.659 30.7867 192.259 30.04C191.939 29.4267 191.779 28.72 191.779 27.92C191.779 27.52 191.806 27.08 191.859 26.6C191.939 26.0933 192.046 25.5467 192.179 24.96C190.499 28.6933 188.766 30.56 186.979 30.56C185.886 30.56 185.339 29.8533 185.339 28.44C185.339 26.1733 186.433 23.8267 188.619 21.4C190.833 18.92 193.033 17.68 195.219 17.68C196.259 17.68 196.779 18.1333 196.779 19.04C196.779 20.16 196.033 21.28 194.539 22.4C193.766 24.32 193.379 26.2933 193.379 28.32C193.379 29.84 193.713 30.6 194.379 30.6C195.313 30.6 196.913 28.92 199.179 25.56C199.339 25.3467 199.459 25.24 199.539 25.24C199.619 25.24 199.659 25.2933 199.659 25.4C199.659 25.5333 199.606 25.6667 199.499 25.8C197.099 29.3733 195.246 31.16 193.939 31.16ZM187.139 29.32C188.819 29.32 190.446 27.4533 192.019 23.72C191.806 23.7733 191.606 23.8267 191.419 23.88C191.259 23.9067 191.113 23.92 190.979 23.92C190.873 23.92 190.819 23.88 190.819 23.8C190.819 23.6667 191.006 23.5333 191.379 23.4L192.619 22.68C192.673 22.2267 192.953 21.64 193.459 20.92C193.966 20.1733 194.446 19.8 194.899 19.8C195.059 19.8 195.139 19.92 195.139 20.16C195.139 20.3467 195.073 20.64 194.939 21.04C195.366 20.4533 195.579 19.88 195.579 19.32C195.579 18.7067 195.299 18.4 194.739 18.4C193.406 18.4 191.659 19.72 189.499 22.36C187.339 24.9467 186.259 26.96 186.259 28.4C186.259 29.0133 186.553 29.32 187.139 29.32ZM199.063 31.44C198.823 31.44 198.703 31.2667 198.703 30.92V30.84C198.81 30.4667 198.917 30 199.023 29.44C199.157 28.88 199.303 28.2267 199.463 27.48C199.623 26.7333 199.823 25.8 200.063 24.68C200.303 23.5333 200.597 22.2133 200.943 20.72L200.463 19.56C200.33 19.2133 200.223 18.96 200.143 18.8C200.09 18.64 200.063 18.56 200.063 18.56C200.063 18.3733 200.29 18.2 200.743 18.04C202.077 17.5333 202.93 17.28 203.303 17.28C203.703 17.28 203.903 17.4 203.903 17.64C203.877 17.56 203.197 19.2667 201.863 22.76V23.12C201.863 23.8667 201.743 24.24 201.503 24.24C201.477 24.24 201.437 24.2 201.383 24.12C201.17 24.7867 200.957 25.4267 200.743 26.04C200.557 26.6267 200.383 27.2133 200.223 27.8C200.81 26.84 201.41 25.92 202.023 25.04C202.663 24.16 203.317 23.3333 203.983 22.56C205.983 20.24 207.637 19.08 208.943 19.08C209.557 19.08 209.863 19.32 209.863 19.8C209.863 19.96 209.823 20.16 209.743 20.4C209.53 21.3067 209.237 22.4533 208.863 23.84C208.49 25.2 208.05 26.7867 207.543 28.6C209.09 27.4533 210.29 26.2267 211.143 24.92C211.277 24.76 211.37 24.68 211.423 24.68C211.503 24.68 211.543 24.7333 211.543 24.84C211.543 24.8933 211.503 24.9867 211.423 25.12C210.25 27.2 208.823 28.8533 207.143 30.08C207.037 30.24 206.863 30.32 206.623 30.32C206.437 30.32 206.343 30.2133 206.343 30C206.343 29.9467 206.383 29.7067 206.463 29.28C206.543 28.8267 206.65 28.2 206.783 27.4C206.917 26.8133 207.037 26.24 207.143 25.68C207.25 25.12 207.357 24.5467 207.463 23.96C207.65 22.6533 207.77 21.5067 207.823 20.52C207.237 20.7867 206.597 21.2267 205.903 21.84C205.237 22.4267 204.49 23.1733 203.663 24.08C202.917 24.9067 202.263 25.6933 201.703 26.44C201.17 27.16 200.73 27.84 200.383 28.48C200.01 29.2 199.73 29.9733 199.543 30.8C199.437 31.2267 199.277 31.44 199.063 31.44ZM201.183 19.64L201.543 18.32C201.41 18.4267 201.157 18.56 200.783 18.72L201.183 19.64ZM218.627 31.16C217.907 31.16 217.347 30.7867 216.947 30.04C216.627 29.4267 216.467 28.72 216.467 27.92C216.467 27.52 216.494 27.08 216.547 26.6C216.627 26.0933 216.734 25.5467 216.867 24.96C215.187 28.6933 213.454 30.56 211.667 30.56C210.574 30.56 210.027 29.8533 210.027 28.44C210.027 26.1733 211.12 23.8267 213.307 21.4C215.52 18.92 217.72 17.68 219.907 17.68C220.947 17.68 221.467 18.1333 221.467 19.04C221.467 20.16 220.72 21.28 219.227 22.4C218.454 24.32 218.067 26.2933 218.067 28.32C218.067 29.84 218.4 30.6 219.067 30.6C220 30.6 221.6 28.92 223.867 25.56C224.027 25.3467 224.147 25.24 224.227 25.24C224.307 25.24 224.347 25.2933 224.347 25.4C224.347 25.5333 224.294 25.6667 224.187 25.8C221.787 29.3733 219.934 31.16 218.627 31.16ZM211.827 29.32C213.507 29.32 215.134 27.4533 216.707 23.72C216.494 23.7733 216.294 23.8267 216.107 23.88C215.947 23.9067 215.8 23.92 215.667 23.92C215.56 23.92 215.507 23.88 215.507 23.8C215.507 23.6667 215.694 23.5333 216.067 23.4L217.307 22.68C217.36 22.2267 217.64 21.64 218.147 20.92C218.654 20.1733 219.134 19.8 219.587 19.8C219.747 19.8 219.827 19.92 219.827 20.16C219.827 20.3467 219.76 20.64 219.627 21.04C220.054 20.4533 220.267 19.88 220.267 19.32C220.267 18.7067 219.987 18.4 219.427 18.4C218.094 18.4 216.347 19.72 214.187 22.36C212.027 24.9467 210.947 26.96 210.947 28.4C210.947 29.0133 211.24 29.32 211.827 29.32ZM237.763 39.36C237.496 39.36 237.363 39.2667 237.363 39.08C237.363 38.92 237.456 38.8267 237.643 38.8C237.856 38.7733 238.163 38.6933 238.563 38.56C239.843 38.0267 241.123 36.6667 242.403 34.48C239.496 34.4 237.229 33.6267 235.603 32.16C233.869 30.5867 233.003 28.3733 233.003 25.52C233.003 22.1333 234.243 18.68 236.723 15.16C239.096 11.8267 241.869 9.34667 245.043 7.72C244.296 7.64 243.696 7.6 243.243 7.6C242.709 7.6 242.149 7.64 241.562 7.72C241.003 7.77333 240.429 7.86666 239.843 8C238.349 8.34667 237.016 8.86667 235.843 9.56C234.216 10.52 233.403 11.5867 233.403 12.76C233.403 12.8933 233.416 13 233.443 13.08V13.4C233.443 13.7733 233.323 13.96 233.083 13.96C232.736 13.96 232.469 13.7067 232.283 13.2C232.096 12.8267 232.003 12.44 232.003 12.04C232.003 10.3867 233.483 9.10667 236.443 8.2C238.603 7.56 240.776 7.24 242.963 7.24C243.309 7.24 243.709 7.26667 244.163 7.32C244.616 7.34667 245.109 7.38667 245.643 7.44C246.309 7.14667 246.976 6.88 247.643 6.64C248.309 6.4 248.976 6.2 249.643 6.04C249.669 5.58667 249.683 5.16 249.683 4.76C249.683 4.33333 249.683 3.93333 249.683 3.56C249.683 3.29333 249.669 2.89333 249.643 2.36C249.616 1.8 249.603 1.38666 249.603 1.12C249.603 0.906665 249.669 0.799998 249.803 0.799998C249.856 0.799998 249.909 0.866664 249.963 0.999998C250.176 1.77333 250.283 2.85333 250.283 4.24C250.283 4.50667 250.283 4.78667 250.283 5.08C250.283 5.34667 250.269 5.62667 250.243 5.92C250.776 5.81333 251.296 5.73333 251.803 5.68C252.309 5.62667 252.803 5.6 253.283 5.6C255.816 5.6 257.816 6.26666 259.283 7.6C260.776 8.90667 261.523 10.7867 261.523 13.24V13.44C261.523 13.8933 261.336 14.12 260.963 14.12C260.749 14.12 260.496 14.04 260.203 13.88C258.976 13.1333 257.949 12.5333 257.123 12.08C256.323 11.6 255.709 11.2533 255.283 11.04C254.376 10.56 253.483 10.1333 252.603 9.76C251.723 9.38667 250.856 9.06667 250.003 8.8C249.869 10.08 249.683 11.4133 249.443 12.8C249.203 14.16 248.936 15.5733 248.643 17.04C249.069 16.6933 249.429 16.52 249.723 16.52C250.016 16.52 250.163 16.6933 250.163 17.04C250.163 17.6 249.909 18.2267 249.403 18.92C248.869 19.6133 248.363 20.0933 247.883 20.36C247.269 22.8667 246.603 25.1733 245.883 27.28C245.189 29.36 244.443 31.2267 243.643 32.88C243.829 32.9067 244.003 32.92 244.163 32.92C244.349 32.92 244.536 32.92 244.723 32.92C247.869 32.92 250.949 32.1467 253.963 30.6C257.109 29.0533 259.509 26.9867 261.163 24.4C261.376 24.08 261.509 23.92 261.563 23.92C261.589 23.9467 261.603 23.9867 261.603 24.04C261.603 24.2533 261.549 24.4533 261.443 24.64C259.789 27.44 257.096 29.8 253.363 31.72C249.763 33.5067 246.256 34.4267 242.843 34.48C241.029 37.7333 239.336 39.36 237.763 39.36ZM259.883 11.8C260.096 11.8 260.203 11.6533 260.203 11.36C260.203 11.0667 260.109 10.7467 259.923 10.4C259.256 9.14667 258.056 8.18667 256.323 7.52C254.883 6.93333 253.336 6.64 251.683 6.64C251.416 6.64 251.163 6.65333 250.923 6.68C250.683 6.68 250.429 6.69333 250.163 6.72L250.043 8.16C251.643 8.50667 253.216 8.96 254.763 9.52C256.336 10.08 257.869 10.7733 259.363 11.6C259.576 11.7333 259.749 11.8 259.883 11.8ZM249.483 8.04L249.563 6.76C248.496 6.92 247.483 7.18667 246.523 7.56L249.483 8.04ZM243.243 32.84C244.069 31.1867 244.829 29.3067 245.523 27.2C246.243 25.0667 246.896 22.72 247.483 20.16C246.763 19.2267 246.403 18.2933 246.403 17.36C246.403 16.5067 246.629 16.08 247.083 16.08C247.456 16.08 247.803 16.44 248.123 17.16C248.736 14.1467 249.176 11.3067 249.443 8.64C248.856 8.45333 248.256 8.30666 247.643 8.2C247.056 8.06666 246.456 7.94666 245.843 7.84C242.803 9.25333 240.296 11.5067 238.323 14.6C236.323 17.72 235.323 20.9467 235.323 24.28C235.323 26.7867 236.016 28.7867 237.403 30.28C238.789 31.7467 240.736 32.6 243.243 32.84ZM260.794 32.24C260.474 32.24 260.341 32.1333 260.394 31.92C260.314 31.76 260.128 31.4133 259.834 30.88C259.514 30.4267 259.354 30.1467 259.354 30.04C259.354 29.8267 259.448 29.7067 259.634 29.68C259.901 29.52 260.181 29.32 260.474 29.08C260.768 28.84 261.088 28.5733 261.434 28.28C263.114 23.3733 265.901 16.64 269.794 8.08C269.901 7.81333 270.034 7.49333 270.194 7.12C270.381 6.74667 270.594 6.30667 270.834 5.8C271.208 5.18666 271.914 4.88 272.954 4.88C273.354 4.88 273.554 4.97333 273.554 5.16C273.554 5.21333 273.528 5.26666 273.474 5.32L271.154 9.68C269.314 13.1467 267.754 16.2667 266.474 19.04C265.194 21.8133 264.181 24.2533 263.434 26.36C264.928 24.8667 266.154 23.5333 267.114 22.36C268.101 21.16 268.848 20.1067 269.354 19.2C269.408 19.0667 269.501 18.88 269.634 18.64C269.794 18.3733 270.061 18.24 270.434 18.24C270.754 18.24 270.914 18.3467 270.914 18.56C270.914 18.6933 270.888 18.88 270.834 19.12C270.808 19.36 270.768 19.6667 270.714 20.04C270.661 20.3867 270.621 20.6933 270.594 20.96C270.568 21.2 270.554 21.4133 270.554 21.6C270.554 23.2267 270.794 24.8667 271.274 26.52C271.968 28.8133 272.914 29.96 274.114 29.96C274.354 29.96 274.621 29.8933 274.914 29.76C275.208 29.6267 275.394 29.56 275.474 29.56C275.688 29.56 275.794 29.6667 275.794 29.88C275.794 30.1467 275.528 30.3867 274.994 30.6C274.434 30.8133 274.008 30.92 273.714 30.92C272.381 30.92 271.168 29.84 270.074 27.68C269.141 25.7333 268.674 23.92 268.674 22.24C268.674 22.1067 268.674 21.9867 268.674 21.88C268.674 21.7733 268.688 21.6667 268.714 21.56C268.234 22.2533 267.514 23.1067 266.554 24.12C265.594 25.1333 264.408 26.3067 262.994 27.64C262.861 28.0933 262.728 28.5333 262.594 28.96C262.488 29.3867 262.394 29.7867 262.314 30.16L262.114 31.16C261.954 31.88 261.514 32.24 260.794 32.24ZM260.594 31C260.648 30.7867 260.701 30.5467 260.754 30.28C260.834 30.0133 260.928 29.7467 261.034 29.48L260.194 30.16C260.328 30.3467 260.461 30.6267 260.594 31ZM282.768 31.16C282.048 31.16 281.488 30.7867 281.088 30.04C280.768 29.4267 280.608 28.72 280.608 27.92C280.608 27.52 280.634 27.08 280.688 26.6C280.768 26.0933 280.874 25.5467 281.008 24.96C279.328 28.6933 277.594 30.56 275.808 30.56C274.714 30.56 274.167 29.8533 274.167 28.44C274.167 26.1733 275.261 23.8267 277.448 21.4C279.661 18.92 281.861 17.68 284.048 17.68C285.088 17.68 285.608 18.1333 285.608 19.04C285.608 20.16 284.861 21.28 283.368 22.4C282.594 24.32 282.208 26.2933 282.208 28.32C282.208 29.84 282.541 30.6 283.208 30.6C284.141 30.6 285.741 28.92 288.008 25.56C288.168 25.3467 288.288 25.24 288.368 25.24C288.448 25.24 288.488 25.2933 288.488 25.4C288.488 25.5333 288.434 25.6667 288.328 25.8C285.928 29.3733 284.074 31.16 282.768 31.16ZM275.968 29.32C277.648 29.32 279.274 27.4533 280.848 23.72C280.634 23.7733 280.434 23.8267 280.248 23.88C280.088 23.9067 279.941 23.92 279.808 23.92C279.701 23.92 279.648 23.88 279.648 23.8C279.648 23.6667 279.834 23.5333 280.208 23.4L281.448 22.68C281.501 22.2267 281.781 21.64 282.288 20.92C282.794 20.1733 283.274 19.8 283.728 19.8C283.888 19.8 283.968 19.92 283.968 20.16C283.968 20.3467 283.901 20.64 283.768 21.04C284.194 20.4533 284.408 19.88 284.408 19.32C284.408 18.7067 284.128 18.4 283.568 18.4C282.234 18.4 280.488 19.72 278.328 22.36C276.168 24.9467 275.088 26.96 275.088 28.4C275.088 29.0133 275.381 29.32 275.968 29.32ZM289.692 31.12C289.505 31.12 289.265 31.04 288.972 30.88C288.678 30.6933 288.532 30.52 288.532 30.36L289.012 29.28C289.465 28.24 289.892 27.2267 290.292 26.24C290.718 25.2267 291.065 24.2133 291.332 23.2C291.598 22.2933 291.732 21.1733 291.732 19.84C291.652 20.1067 291.478 20.4933 291.212 21C290.945 21.5067 290.585 22.1467 290.132 22.92C289.705 23.6667 289.318 24.2933 288.972 24.8C288.652 25.28 288.385 25.6667 288.172 25.96C288.172 25.9867 288.145 26 288.092 26C287.958 26 287.892 25.9467 287.892 25.84C287.892 25.7867 287.905 25.7467 287.932 25.72L289.172 23.76C289.892 22.6133 290.465 21.5733 290.892 20.64C291.318 19.68 291.625 18.84 291.812 18.12C291.972 17.4267 292.238 17.08 292.612 17.08C293.038 17.08 293.252 17.6133 293.252 18.68C293.252 20.6 292.638 22.96 291.412 25.76C292.852 23.9467 293.852 22.7467 294.412 22.16C295.932 20.5333 297.118 19.72 297.972 19.72C298.825 19.72 299.252 20.28 299.252 21.4C299.252 22.1733 299.038 22.8533 298.612 23.44C298.105 24.1867 297.638 24.56 297.212 24.56C297.132 24.56 297.092 24.5067 297.092 24.4C297.092 24.4 297.238 24.0667 297.532 23.4C297.825 22.7333 297.972 22.16 297.972 21.68C297.972 20.96 297.745 20.6 297.292 20.6C296.598 20.6 295.558 21.4133 294.172 23.04C293.585 23.7067 293.078 24.3333 292.652 24.92C292.225 25.48 291.878 25.9867 291.612 26.44C291.585 26.52 291.452 26.84 291.212 27.4C290.972 27.96 290.665 28.7867 290.292 29.88L289.892 31.04C289.838 31.0933 289.772 31.12 289.692 31.12ZM307.103 31.16C306.383 31.16 305.823 30.7867 305.423 30.04C305.103 29.4267 304.943 28.72 304.943 27.92C304.943 27.52 304.97 27.08 305.023 26.6C305.103 26.0933 305.21 25.5467 305.343 24.96C303.663 28.6933 301.93 30.56 300.143 30.56C299.05 30.56 298.503 29.8533 298.503 28.44C298.503 26.1733 299.597 23.8267 301.783 21.4C303.997 18.92 306.197 17.68 308.383 17.68C309.423 17.68 309.943 18.1333 309.943 19.04C309.943 20.16 309.197 21.28 307.703 22.4C306.93 24.32 306.543 26.2933 306.543 28.32C306.543 29.84 306.877 30.6 307.543 30.6C308.477 30.6 310.077 28.92 312.343 25.56C312.503 25.3467 312.623 25.24 312.703 25.24C312.783 25.24 312.823 25.2933 312.823 25.4C312.823 25.5333 312.77 25.6667 312.663 25.8C310.263 29.3733 308.41 31.16 307.103 31.16ZM300.303 29.32C301.983 29.32 303.61 27.4533 305.183 23.72C304.97 23.7733 304.77 23.8267 304.583 23.88C304.423 23.9067 304.277 23.92 304.143 23.92C304.037 23.92 303.983 23.88 303.983 23.8C303.983 23.6667 304.17 23.5333 304.543 23.4L305.783 22.68C305.837 22.2267 306.117 21.64 306.623 20.92C307.13 20.1733 307.61 19.8 308.063 19.8C308.223 19.8 308.303 19.92 308.303 20.16C308.303 20.3467 308.237 20.64 308.103 21.04C308.53 20.4533 308.743 19.88 308.743 19.32C308.743 18.7067 308.463 18.4 307.903 18.4C306.57 18.4 304.823 19.72 302.663 22.36C300.503 24.9467 299.423 26.96 299.423 28.4C299.423 29.0133 299.717 29.32 300.303 29.32ZM312.228 31.44C311.987 31.44 311.867 31.2667 311.867 30.92V30.84C311.974 30.4667 312.081 30 312.188 29.44C312.321 28.88 312.468 28.2267 312.628 27.48C312.788 26.7333 312.988 25.8 313.228 24.68C313.468 23.5333 313.761 22.2133 314.108 20.72L313.628 19.56C313.494 19.2133 313.388 18.96 313.308 18.8C313.254 18.64 313.228 18.56 313.228 18.56C313.228 18.3733 313.454 18.2 313.908 18.04C315.241 17.5333 316.094 17.28 316.468 17.28C316.868 17.28 317.068 17.4 317.068 17.64C317.041 17.56 316.361 19.2667 315.028 22.76V23.12C315.028 23.8667 314.908 24.24 314.668 24.24C314.641 24.24 314.601 24.2 314.548 24.12C314.334 24.7867 314.121 25.4267 313.908 26.04C313.721 26.6267 313.548 27.2133 313.388 27.8C313.974 26.84 314.574 25.92 315.188 25.04C315.828 24.16 316.481 23.3333 317.148 22.56C319.148 20.24 320.801 19.08 322.108 19.08C322.721 19.08 323.028 19.32 323.028 19.8C323.028 19.96 322.988 20.16 322.908 20.4C322.694 21.3067 322.401 22.4533 322.028 23.84C321.654 25.2 321.214 26.7867 320.708 28.6C322.254 27.4533 323.454 26.2267 324.308 24.92C324.441 24.76 324.534 24.68 324.588 24.68C324.668 24.68 324.708 24.7333 324.708 24.84C324.708 24.8933 324.668 24.9867 324.588 25.12C323.414 27.2 321.988 28.8533 320.308 30.08C320.201 30.24 320.028 30.32 319.788 30.32C319.601 30.32 319.508 30.2133 319.508 30C319.508 29.9467 319.548 29.7067 319.628 29.28C319.708 28.8267 319.814 28.2 319.948 27.4C320.081 26.8133 320.201 26.24 320.308 25.68C320.414 25.12 320.521 24.5467 320.628 23.96C320.814 22.6533 320.934 21.5067 320.988 20.52C320.401 20.7867 319.761 21.2267 319.068 21.84C318.401 22.4267 317.654 23.1733 316.828 24.08C316.081 24.9067 315.428 25.6933 314.868 26.44C314.334 27.16 313.894 27.84 313.548 28.48C313.174 29.2 312.894 29.9733 312.708 30.8C312.601 31.2267 312.441 31.44 312.228 31.44ZM314.348 19.64L314.708 18.32C314.574 18.4267 314.321 18.56 313.948 18.72L314.348 19.64Z" fill="#9DB46F" fill-opacity="0.54"/>
</svg>
